<?xml version="1.0" encoding="UTF-8"?><svg id="Layer_2" xmlns="http://www.w3.org/2000/svg" viewBox="0 0 29.01 38.68"><defs><style>.cls-1{fill:#4da234;}.cls-2{fill:#025780;}</style></defs><g id="Capa_1"><path class="cls-1" d="m14.5,7.25c-2,0-3.63-1.63-3.63-3.63s1.63-3.63,3.63-3.63,3.63,1.63,3.63,3.63-1.63,3.63-3.63,3.63Zm0-6.04c-1.33,0-2.42,1.08-2.42,2.42s1.08,2.42,2.42,2.42,2.42-1.08,2.42-2.42-1.08-2.42-2.42-2.42Z"/><rect class="cls-1" x="9.67" y="30.22" width="1.21" height="8.46"/><rect class="cls-1" x="18.13" y="30.22" width="1.21" height="8.46"/><rect class="cls-1" x="13.9" y="30.22" width="1.21" height="8.46"/><rect class="cls-2" x="11.48" y="12.09" width="6.04" height="1.21"/><rect class="cls-2" x="10.27" y="14.5" width="8.46" height="1.21"/><rect class="cls-2" x="9.06" y="16.92" width="10.88" height="1.21"/><rect class="cls-2" x="9.06" y="19.34" width="3.63" height="1.21"/><rect class="cls-2" x="16.32" y="19.34" width="3.63" height="1.21"/><rect class="cls-2" x="10.27" y="21.76" width="2.42" height="1.21"/><rect class="cls-2" x="16.32" y="21.76" width="2.42" height="1.21"/><rect class="cls-2" x="11.48" y="24.17" width="1.21" height="1.21"/><rect class="cls-2" x="16.32" y="24.17" width="1.21" height="1.21"/><rect class="cls-2" x="13.9" y="12.69" width="1.21" height="10.27"/><polygon class="cls-2" points="4.83 15.71 3.63 15.71 3.63 12.09 7.25 12.09 7.25 13.3 4.83 13.3 4.83 15.71"/><polygon class="cls-2" points="7.25 25.38 3.63 25.38 3.63 21.76 4.83 21.76 4.83 24.17 7.25 24.17 7.25 25.38"/><polygon class="cls-2" points="25.38 25.38 21.76 25.38 21.76 24.17 24.17 24.17 24.17 21.76 25.38 21.76 25.38 25.38"/><polygon class="cls-2" points="25.38 15.71 24.17 15.71 24.17 13.3 21.76 13.3 21.76 12.09 25.38 12.09 25.38 15.71"/><path class="cls-1" d="m27.8,29.01H1.21c-.67,0-1.21-.54-1.21-1.21V9.67c0-.67.54-1.21,1.21-1.21h26.59c.67,0,1.21.54,1.21,1.21v18.13c0,.67-.54,1.21-1.21,1.21ZM1.21,9.67v18.13h26.59V9.67H1.21Z"/></g></svg>