<?xml version="1.0" encoding="UTF-8"?><svg id="Layer_2" xmlns="http://www.w3.org/2000/svg" viewBox="0 0 23.86 26.7"><defs><style>.cls-1{fill:#4da234;}.cls-2{fill:#025780;}</style></defs><g id="Capa_1"><path class="cls-1" d="m20.28,26.7c-2.06,0-2.9-2.72-3.79-5.61-.98-3.19-2-6.48-4.55-6.48s-3.57,3.3-4.55,6.48c-.89,2.88-1.73,5.61-3.79,5.61-1.51,0-2.53-1.31-2.53-3.26l.52-13.15c-1.02-1.13-1.58-2.59-1.58-4.12C0,2.76,2.76,0,6.16,0c1.48,0,2.91.53,4.03,1.5.48.4,1.1.63,1.74.63s1.27-.24,1.77-.65c1.13-.95,2.55-1.47,4-1.47,3.4,0,6.16,2.76,6.16,6.16,0,1.53-.56,2.98-1.57,4.11l.52,13.15c0,1.96-1.02,3.27-2.53,3.27Zm-8.34-12.87c3.14,0,4.29,3.74,5.3,7.04.8,2.6,1.55,5.05,3.03,5.05,1.29,0,1.75-1.33,1.75-2.47l-.52-13.29c0-.11.03-.21.11-.29.95-1,1.47-2.32,1.47-3.7,0-2.96-2.41-5.38-5.38-5.38-1.27,0-2.51.46-3.49,1.29-.64.53-1.47.84-2.27.84s-1.62-.29-2.25-.81c-.98-.85-2.24-1.31-3.53-1.31C3.2.79.79,3.2.79,6.16c0,1.39.53,2.7,1.48,3.7.07.08.11.18.11.29l-.52,13.3c0,1.13.46,2.46,1.75,2.46,1.48,0,2.24-2.45,3.03-5.05,1.02-3.3,2.17-7.04,5.3-7.04Z"/><path class="cls-2" d="m19.83,3.67c-.59-.51-1.35-.79-2.13-.79v-.79c.97,0,1.9.35,2.64.98l-.51.6Z"/><path class="cls-2" d="m11.94,5.01c-1.31,0-2.58-.46-3.59-1.3l-.03-.02c-.6-.52-1.37-.81-2.16-.81-.66,0-1.29.19-1.83.56l-.44-.65c.67-.46,1.46-.7,2.27-.7.98,0,1.93.35,2.67.99l.02.02c.86.72,1.96,1.12,3.08,1.12s2.23-.41,3.11-1.14l.5.6c-1.02.86-2.31,1.33-3.62,1.33Z"/></g></svg>