<?xml version="1.0" encoding="UTF-8"?><svg id="Layer_2" xmlns="http://www.w3.org/2000/svg" viewBox="0 0 42.3 27.63"><defs><style>.cls-1{fill:#4da234;}.cls-2{fill:#025780;}</style></defs><g id="Capa_1"><path class="cls-2" d="m26.56,10.88h-3.35v2.09h-2.09v3.35h2.09v2.09h3.35v-2.09h2.09v-3.35h-2.09v-2.09Zm1.26,2.93v1.67h-2.09v2.09h-1.67v-2.09h-2.09v-1.67h2.09v-2.09h1.67v2.09h2.09Z"/><path class="cls-2" d="m36.61,13.54l.6-.58c-.42-.41-.87-.79-1.36-1.12-.36-.25-.75-.48-1.13-.68l-.37.75c.35.18.7.39,1.03.62.44.31.86.65,1.23,1.02Z"/><rect class="cls-2" x="31.25" y="20.64" width="1.26" height="1.26"/><rect class="cls-2" x="26.23" y="20.64" width="1.26" height="1.26"/><rect class="cls-2" x="28.74" y="20.64" width="1.26" height="1.26"/><path class="cls-1" d="m35.93,24.28c3.51,0,6.37-2.86,6.37-6.37,0-.77-.14-1.53-.41-2.25-.14-.38-.31-.77-.5-1.14-.15-.32-.63-1.13-.64-1.14-1.12-1.77-2.68-3.25-4.52-4.27-1.86-1.03-3.97-1.58-6.1-1.58h-2.48v-1.67h1.26v-1.26h11.72c.92,0,1.67-.75,1.67-1.67,0-.45-.17-.87-.49-1.18-.31-.32-.73-.49-1.18-.49h-11.77l-.05-.14c-.24-.67-.87-1.12-1.58-1.12s-1.34.45-1.58,1.12l-.05.14h-11.77c-.92,0-1.67.75-1.67,1.67,0,.45.17.87.49,1.18.32.32.74.49,1.18.49h11.72v1.26h1.26v1.67H6.98l-2.18-4.19H0l2.91,7.59L.17,16.24h4.45l2-3.66,8.59.7c.7.06,1.33.46,1.67,1.08l4.34,7.95c.62,1.13,1.76,1.87,3.05,1.95h.19v2.52h-3.01c-.81,0-1.47-.6-1.58-1.38h-.84c.11,1.24,1.15,2.22,2.42,2.22h16.91c1.27,0,2.31-.98,2.42-2.22h-.84c-.1.78-.77,1.38-1.58,1.38h-3.01v-2.51h.58ZM28.91,2.09h11.72c.22,0,.43.09.59.24s.25.37.25.59c0,.46-.38.84-.84.84h-11.72v-1.67Zm-3.35,1.67h-11.72c-.22,0-.43-.09-.59-.25-.16-.16-.25-.37-.25-.59,0-.46.38-.84.84-.84h11.72v1.67Zm5.61,4.65l.23.02c3.57.38,6.73,2.35,8.65,5.4l.59,1.05c.18.35.33.71.47,1.08.18.48.29.97.34,1.48l.02.23h-8.03l-2.27-2.27v-6.98Zm-4.77-3.39V1.67c0-.46.38-.84.84-.84s.84.38.84.84v3.35h-1.67Zm8.12,21.76h-9.21v-2.51h9.21v2.51Zm-9.98-3.35c-1.07,0-2.06-.58-2.57-1.53l-4.34-7.95c-.47-.87-1.35-1.44-2.33-1.52l-9.13-.75-2.02,3.7H1.55l2.28-4.41L1.22,4.19h3.07l2.18,4.19h23.86v7.37l2.76,2.76h8.35l-.04.24c-.41,2.68-2.75,4.7-5.47,4.7h-11.4Z"/></g></svg>