<?xml version="1.0" encoding="UTF-8"?><svg id="Layer_2" xmlns="http://www.w3.org/2000/svg" viewBox="0 0 27.47 27.46"><defs><style>.cls-1{fill:#fff;}.cls-2{fill:#025780;}</style></defs><g id="Capa_1"><path class="cls-2" d="m19.84,26.93c-.36.43-.83.52-1.36.52-5.65,0-11.3-.02-16.95,0C.66,27.47,0,26.8,0,25.93c.02-7.22.02-14.45,0-21.67,0-.85.64-1.56,1.53-1.53,1.11.04,2.23,0,3.34.01.16,0,.25-.03.33-.19.26-.48.68-.73,1.23-.73.33,0,.67,0,1.01,0C8.01.58,8.96-.1,10.35.01c1.14.1,1.9.76,2.34,1.82.34,0,.68,0,1.02,0,.55,0,.97.25,1.23.73.08.16.18.19.33.19,1.15,0,2.31,0,3.46,0,.82,0,1.41.59,1.41,1.4,0,2.94,0,5.87,0,8.81v.41c.21-.15.38-.27.55-.39.3-.22.43-.22.74,0,.56.4,1.09.83,1.68,1.19,1.13.68,2.37.96,3.68.95.56,0,.67.11.67.66,0,2.03.02,4.06,0,6.09-.02,1.71-.82,2.96-2.34,3.72-1.23.61-2.49,1.18-3.73,1.78-.23.11-.43.12-.65,0-.28-.15-.58-.28-.89-.42ZM2.78,5.5v19.19h12.94c-.28-.44-.55-.88-.86-1.37h-7.96v-.92h7.75v-1.82h-7.75v-.92h7.74v-1.83h-7.74v-.91h7.76c0-.44,0-.85,0-1.26,0-.42.15-.54.57-.57.63-.05,1.27-.13,1.9-.19.22-.02.29-.12.29-.35,0-2.93,0-5.85,0-8.78,0-.09,0-.18-.01-.28h-2.25c-.13.38-.23.45-.63.45-2.93,0-5.85,0-8.78,0-.36,0-.64-.05-.71-.46h-2.24Zm16.05,21.04v-.08c-.48-.23-.96-.48-1.45-.69-.18-.08-.4-.14-.6-.14-4.78,0-9.57,0-14.35,0-.44,0-.58-.14-.59-.58,0-1.35,0-2.71,0-4.06,0-5.27,0-10.54,0-15.81,0-.46.14-.6.59-.6.37,0,.74,0,1.11,0,.49,0,.98,0,1.48,0v-.92c-1.15,0-2.29,0-3.42,0-.54,0-.68.14-.68.67,0,7.18,0,14.35,0,21.53,0,.53.14.68.68.68,5.64,0,11.28,0,16.92,0,.1,0,.2,0,.3,0Zm7.72-10.49c-.43-.04-.82-.07-1.21-.12-1.47-.22-2.75-.86-3.9-1.78-.38-.31-.39-.3-.77,0-.99.79-2.07,1.39-3.31,1.66-.58.13-1.18.18-1.78.27,0,0-.01.03-.01.05,0,1.94-.03,3.89.01,5.83.03,1.27.67,2.22,1.83,2.78,1.14.56,2.3,1.1,3.45,1.64.11.05.28.05.39,0,1.1-.51,2.18-1.04,3.28-1.55,1.37-.63,2.02-1.69,2.02-3.19,0-1.75,0-3.51,0-5.26,0-.11,0-.23,0-.34ZM5.96,5.01h8.23c0-.6,0-1.18,0-1.76,0-.33-.19-.5-.53-.51-.43,0-.86,0-1.29,0-.3,0-.45-.14-.53-.41-.24-.87-.94-1.42-1.78-1.42-.84,0-1.53.55-1.77,1.42-.08.28-.24.41-.53.41-.43,0-.86,0-1.29,0-.32,0-.52.18-.52.48-.01.59,0,1.18,0,1.78Zm12.35,9.51c.28-.14.5-.27.73-.38.15-.07.19-.17.19-.34,0-3.18,0-6.37,0-9.55,0-.44-.17-.6-.61-.6-1.09,0-2.17,0-3.26,0-.07,0-.15,0-.23,0v.92c.86,0,1.71,0,2.56,0,.5,0,.63.13.63.62,0,2.98,0,5.97,0,8.95v.38Z"/><path class="cls-1" d="m8.7,8.69c0-.45,0-.88,0-1.31,0-.36.16-.52.52-.52.57,0,1.14,0,1.71,0,.34,0,.5.17.51.51,0,.43,0,.85,0,1.32.43,0,.85,0,1.26,0,.42,0,.57.15.57.56,0,.55,0,1.1,0,1.66,0,.36-.16.52-.52.52-.43,0-.85,0-1.31,0,0,.45,0,.88,0,1.31,0,.36-.16.52-.52.52-.57,0-1.14,0-1.71,0-.34,0-.5-.17-.51-.51,0-.43,0-.85,0-1.32-.43,0-.85,0-1.26,0-.42,0-.57-.15-.57-.57,0-.55,0-1.1,0-1.66,0-.36.16-.52.52-.52.43,0,.85,0,1.31,0Zm3.65.91c-.45,0-.88,0-1.31,0-.36,0-.52-.16-.52-.53,0-.43,0-.85,0-1.28h-.92c0,.43,0,.83,0,1.24,0,.42-.15.57-.56.57-.42,0-.83,0-1.25,0v.92c.43,0,.84,0,1.25,0,.41,0,.56.15.56.57,0,.42,0,.83,0,1.24h.9s.01-.06.01-.08c0-.37,0-.74,0-1.11,0-.48.13-.61.61-.61.4,0,.81,0,1.22,0v-.92Z"/><path class="cls-2" d="m13.72,14.2v.88h-6.84v-.88h6.84Z"/><path class="cls-1" d="m5.95,14.2v.88h-1.79v-.88h1.79Z"/><path class="cls-1" d="m4.14,17.82v-.88h1.79v.88h-1.79Z"/><path class="cls-1" d="m4.14,20.57v-.88h1.79v.88h-1.79Z"/><path class="cls-1" d="m5.93,23.33h-1.78v-.89h1.78v.89Z"/><path class="cls-1" d="m16.48,19.68c0-.77,0-1.54,0-2.32,0-.36.11-.49.47-.55,1.37-.24,2.63-.75,3.75-1.58.23-.17.45-.19.68-.01,1.13.83,2.39,1.35,3.77,1.59.37.07.47.2.47.59,0,1.5.01,2.99,0,4.49,0,.92-.45,1.61-1.26,2.02-.99.49-1.99.95-2.98,1.43-.22.11-.42.11-.65,0-.98-.48-1.98-.93-2.96-1.42-.83-.41-1.27-1.1-1.29-2.03-.01-.73,0-1.47,0-2.2Zm.92-1.97c0,1.4-.02,2.81,0,4.22,0,.53.3.94.79,1.17.89.43,1.78.85,2.68,1.26.1.05.26.05.37,0,.91-.42,1.81-.85,2.7-1.28.4-.19.67-.51.72-.96.05-.41.04-.83.04-1.25,0-1.06,0-2.11,0-3.17-.07-.02-.12-.05-.17-.06-1.2-.25-2.31-.73-3.34-1.4-.07-.05-.23-.03-.31.02-.63.31-1.24.67-1.88.95-.51.22-1.06.34-1.6.51Z"/><path class="cls-2" d="m11.45,2.73c0,.77-.59,1.38-1.36,1.39-.77,0-1.38-.6-1.39-1.36,0-.78.6-1.39,1.39-1.39.75,0,1.36.61,1.36,1.36Zm-1.37.47c.24,0,.46-.23.45-.47,0-.24-.24-.45-.48-.44-.23.01-.43.23-.43.45,0,.24.23.46.46.46Z"/><path class="cls-2" d="m18.44,21.38c.23-.22.44-.42.68-.65.32.34.65.68,1,1.05,1.14-1.14,2.24-2.24,3.35-3.36.22.24.42.45.63.68-.04.04-.09.11-.15.17-1.12,1.12-2.24,2.24-3.35,3.35-.36.36-.55.35-.91,0-.41-.41-.82-.82-1.24-1.24Z"/></g></svg>