<?xml version="1.0" encoding="UTF-8"?><svg id="Layer_2" xmlns="http://www.w3.org/2000/svg" viewBox="0 0 31.78 26.49"><defs><style>.cls-1{fill:#fff;}.cls-2{fill:#025780;}</style></defs><g id="Capa_1"><path class="cls-2" d="m0,6.79c.14-.37.23-.77.43-1.12.67-1.17,1.72-1.71,3.05-1.71,2.23,0,4.47,0,6.7,0,.12,0,.24,0,.4,0,0-.6,0-1.17,0-1.73,0-.26.02-.52.08-.77.22-.82.89-1.37,1.73-1.45.11-.01.23-.02.34-.02,2.1,0,4.2,0,6.3,0,1.07,0,1.84.55,2.08,1.5.06.23.07.47.07.71,0,.57,0,1.14,0,1.76.14,0,.25,0,.37,0,2.24,0,4.49,0,6.73,0,1.3,0,2.32.51,3.01,1.63.33.53.47,1.11.47,1.74,0,5.22-.03,10.44.01,15.66.01,1.74-1.29,3.54-3.49,3.5-.66-.01-1.32,0-1.99,0-7.59,0-15.18,0-22.77,0-1.36,0-2.43-.51-3.12-1.71C.23,24.44.14,24.04,0,23.67c0-5.63,0-11.25,0-16.88Zm15.88-1.49c-4.11,0-8.23.02-12.34,0-1.22,0-2.22.81-2.21,2.2.02,5.16,0,10.32.01,15.48,0,.24.01.48.07.71.25.94,1.02,1.49,2.09,1.49,8.25,0,16.5,0,24.75,0,1.2,0,2.2-.81,2.19-2.18-.02-5.17,0-10.34-.01-15.51,0-.23,0-.46-.06-.68-.24-.94-1.01-1.5-2.05-1.5-4.15,0-8.29,0-12.44,0Zm3.98-1.35c0-.6,0-1.19,0-1.77,0-.6-.25-.84-.85-.84-1.16,0-2.32,0-3.47,0-.95,0-1.9,0-2.85,0-.45,0-.74.23-.76.65-.02.65,0,1.3,0,1.97h7.94Z"/><path class="cls-1" d="m18.54,13.25c1.11,0,2.17,0,3.23,0,1.2,0,2.04.85,2.05,2.05,0,.41,0,.83,0,1.24,0,1.08-.76,1.94-1.84,1.99-1.01.05-2.03.02-3.04.02-.12,0-.24,0-.4,0,0,.14,0,.25,0,.36,0,.95,0,1.9,0,2.85,0,1.2-.87,2.08-2.07,2.08-.53,0-1.06.03-1.58-.05-1.01-.15-1.67-.97-1.67-2,0-.96,0-1.92,0-2.88,0-.11,0-.22,0-.37-.16,0-.3,0-.43,0-1.03,0-2.07.02-3.1-.03-.98-.05-1.74-.93-1.75-1.92,0-.47,0-.93,0-1.4,0-1.08.88-1.95,1.95-1.96,1.07,0,2.15,0,3.22,0,.02,0,.04,0,.11-.02,0-.1,0-.21,0-.31,0-.95,0-1.9,0-2.85,0-1.21.8-2.06,2.01-2.1.48-.02.97-.02,1.46.01,1.07.08,1.84.91,1.85,1.99.01.97,0,1.94,0,2.91,0,.11,0,.22,0,.38Zm-6.63,3.97c.6,0,1.2,0,1.8,0,.63,0,.86.23.86.85,0,1.23,0,2.46,0,3.69,0,.5.24.73.74.74.36,0,.72,0,1.09,0,.56,0,.79-.22.79-.79,0-1.21,0-2.42,0-3.63,0-.64.23-.86.85-.86,1.22,0,2.44,0,3.66,0,.53,0,.78-.24.79-.77,0-.33,0-.66,0-.99,0-.67-.2-.87-.87-.87-1.19,0-2.38,0-3.57,0-.63,0-.86-.24-.86-.86,0-1.23,0-2.46,0-3.69,0-.49-.26-.74-.74-.75-.37,0-.74,0-1.12,0-.51,0-.76.26-.76.77,0,1.2,0,2.4,0,3.6,0,.73-.21.94-.94.94-1.18,0-2.36,0-3.54,0-.59,0-.81.22-.82.8,0,.36,0,.72,0,1.09.01.51.26.75.77.75.62,0,1.24,0,1.86,0Z"/></g></svg>