<?xml version="1.0" encoding="UTF-8"?><svg id="Layer_2" xmlns="http://www.w3.org/2000/svg" viewBox="0 0 29.51 29.51"><defs><style>.cls-1{fill:#fff;}.cls-2{fill:#025780;}</style></defs><g id="Capa_1"><path class="cls-2" d="m3.94,11.31c0-.17,0-.29,0-.42,0-3.41,0-6.82,0-10.24C3.94.15,4.08,0,4.58,0c5.47,0,10.94,0,16.41,0,.49,0,.64.15.65.63,0,.43,0,.86,0,1.33.43,0,.84,0,1.26,0,.58,0,.71.13.71.69,0,2.26,0,4.53,0,6.79,0,.11,0,.22,0,.38.12,0,.23,0,.34,0,.91,0,1.82,0,2.74,0,1.52.02,2.84,1.36,2.83,2.87,0,.12-.02.24-.06.36-1.27,4.64-2.55,9.27-3.83,13.91-.06.23-.08.46-.13.69-.27,1.08-1.25,1.84-2.37,1.84-6.9,0-13.79,0-20.69,0-1.35,0-2.44-1.09-2.44-2.44,0-4.44,0-8.87,0-13.31,0-1.37,1.09-2.44,2.46-2.45.48,0,.96,0,1.47,0Zm8.85,17.22c3.36,0,6.72,0,10.08,0,1.14,0,1.73-.58,1.73-1.71,0-3.45,0-6.91,0-10.36,0-1.12-.59-1.7-1.71-1.7-3.97,0-7.93,0-11.9,0-.27,0-.46-.08-.65-.27-.67-.68-1.34-1.36-2.02-2.02-.1-.1-.28-.17-.42-.17-1.73-.01-3.46,0-5.2,0-1.14,0-1.72.58-1.72,1.72,0,4.26,0,8.53,0,12.79,0,1.14.58,1.72,1.72,1.72,3.36,0,6.72,0,10.08,0ZM4.93,11.31c1.12,0,2.2,0,3.28,0,.26,0,.44.08.62.26.66.67,1.33,1.33,1.99,2.01.14.14.28.2.48.2,3,0,6,0,9.01,0h.32V1H4.93v10.31Zm20.65,11.89s.03,0,.05,0c0-.02.01-.04.02-.06.95-3.43,1.89-6.87,2.84-10.3.02-.08.04-.16.03-.24-.08-.86-.73-1.6-1.58-1.72-.55-.08-1.12-.05-1.68-.06-.54,0-1.08,0-1.63,0v2.98s.06.03.08.03c1.22.37,1.87,1.25,1.87,2.52,0,1.63,0,3.26,0,4.89,0,.65,0,1.31,0,1.96Zm-2.97-9.45V2.97h-.95v10.79h.95Z"/><path class="cls-1" d="m10.33,19.18c0-.8,0-1.56,0-2.32,0-.47.15-.63.62-.63,1.23,0,2.46,0,3.69,0,.45,0,.61.16.61.6,0,.77,0,1.53,0,2.35h.31c.69,0,1.37,0,2.06,0,.41,0,.58.17.59.57,0,1.26,0,2.52,0,3.78,0,.4-.17.57-.59.57-.78,0-1.55,0-2.36,0,0,.75,0,1.47,0,2.2,0,.64-.11.75-.74.75-1.19,0-2.38,0-3.56,0-.45,0-.61-.16-.61-.6,0-.77,0-1.53,0-2.35-.11,0-.21,0-.31,0-.69,0-1.37,0-2.06,0-.41,0-.58-.17-.58-.57,0-1.26,0-2.52,0-3.78,0-.4.17-.57.59-.57.78,0,1.55,0,2.36,0Zm.98,6.86h2.95c0-.8,0-1.58,0-2.35,0-.41.17-.57.58-.57.36,0,.72,0,1.08,0,.43,0,.85,0,1.27,0v-2.95c-.79,0-1.56,0-2.33,0-.43,0-.6-.16-.6-.59,0-.68,0-1.35,0-2.03,0-.11,0-.22,0-.32h-2.92s-.03.05-.03.07c0,.74,0,1.48,0,2.21,0,.51-.15.65-.66.65-.76,0-1.51,0-2.27,0v2.95c.79,0,1.55,0,2.32,0,.45,0,.61.16.61.6,0,.77,0,1.53,0,2.33Z"/><path class="cls-1" d="m12.79,9.81c0-.45,0-.88,0-1.31,0-.45-.18-.62-.63-.64-.31-.02-.64-.03-.93-.12-.43-.14-.68-.5-.84-.88h-1.1s-.07.14-.12.22c-.28.5-.71.78-1.29.79-.96.01-.99.05-.99,1.01v.94h-.98c0-.57-.04-1.13,0-1.69.06-.68.71-1.23,1.39-1.24.18,0,.37.01.55,0,.44-.04.63-.46.38-.82-.25-.35-.39-.74-.37-1.18.02-.49-.02-.99.08-1.46.21-.96,1.18-1.57,2.17-1.44.95.13,1.68.96,1.69,1.93,0,.33,0,.66,0,.98.01.44-.12.82-.37,1.18-.25.36-.06.78.38.82.17.01.35,0,.52,0,.78.01,1.42.65,1.43,1.43,0,.49,0,.98,0,1.5h-.98Zm-1.97-5.36c0-.18.01-.37,0-.55-.04-.54-.48-.95-.99-.94-.52,0-.94.42-.97.96-.02.35-.02.7,0,1.04.03.53.48.95.99.94.5,0,.92-.4.97-.93.02-.17,0-.35,0-.52Z"/><path class="cls-1" d="m17.25,1.97c.61,0,1.23,0,1.84,0,.41,0,.58.17.58.57,0,.6,0,1.21,0,1.81,0,.39-.17.57-.56.57-1.27,0-2.54,0-3.81,0-.38,0-.55-.18-.55-.57,0-.59,0-1.19,0-1.78,0-.43.16-.6.59-.6.63,0,1.27,0,1.9,0Zm1.43,1h-2.91v.95h2.91v-.95Z"/><path class="cls-1" d="m19.66,5.92v.95h-4.88v-.95h4.88Z"/><path class="cls-1" d="m14.77,8.83v-.95h4.88v.95h-4.88Z"/><path class="cls-1" d="m14.77,10.8v-.94h4.89v.94h-4.89Z"/><path class="cls-1" d="m14.77,12.77v-.95h4.88v.95h-4.88Z"/></g></svg>