<?xml version="1.0" encoding="UTF-8"?><svg id="Layer_2" xmlns="http://www.w3.org/2000/svg" viewBox="0 0 32.68 32.2"><defs><style>.cls-1{fill:#fff;}.cls-2{fill:#025780;}</style></defs><g id="Capa_1"><path class="cls-2" d="m32.68,6.39c-.05.22-.11.45-.16.67-.31,1.2-.94,2.2-1.89,2.99-.16.13-.18.23-.12.42,1.16,3.59.53,6.79-2.1,9.54-1.77,1.84-3.57,3.66-5.35,5.48-.06.06-.11.12-.24.25.57-.11,1.06-.2,1.55-.3.73-.15,1.45-.33,2.18-.44.38-.05.79-.03,1.16.07,1.32.35,1.75,1.79.9,2.89-.37.48-.87.77-1.44.95-2.45.78-4.9,1.58-7.36,2.35-.99.31-1.99.6-3,.83-.94.21-1.88.04-2.8-.21-2.83-.77-5.67-1.55-8.5-2.32-.02,0-.04,0-.09,0-.11.63-.57.7-1.11.69-1.16-.02-2.32,0-3.48,0-.58,0-.83-.26-.83-.83,0-2.7,0-5.4,0-8.11,0-.59.24-.82.84-.83,1.21,0,2.43,0,3.64,0,.61,0,.76.11.96.71.65-.11,1.31-.21,2.03-.33-.32-.33-.6-.62-.89-.9-.81-.81-1.44-1.73-1.87-2.79-1.03-2.56-.98-5.09.2-7.59.07-.14.19-.32.33-.36.16-.04.39.01.52.11.2.15.14.39.06.61-.26.75-.59,1.49-.72,2.26-.43,2.58.2,4.89,1.97,6.85.45.5.93.97,1.4,1.44.09.09.26.15.38.13,1.31-.21,2.62-.42,3.92-.65,1.18-.21,2.35-.14,3.51.1.63.13,1.27.23,1.91.37.65.14,1.21.47,1.63.99.97,1.23.41,2.89-1.12,3.19-.62.12-1.29.04-1.93,0-.74-.06-1.47-.19-2.21-.28-.33-.04-.58.14-.66.47-.08.35.06.64.42.74.36.1.73.15,1.09.22.98.18,1.96.35,2.94.55.83.17,1.63.03,2.43-.16.21-.05.44-.17.59-.32,2.16-2.19,4.31-4.39,6.45-6.6,1.8-1.86,2.49-4.11,2.19-6.66-.07-.6-.24-1.2-.37-1.84-1.73.8-3.4.87-5.05.08-1.65-.79-2.67-2.11-3.14-3.9-.96.37-1.78.9-2.52,1.58-.29.27-.56.56-.86.81-.41.36-.69.36-1.1,0-.43-.38-.82-.81-1.27-1.16-1.49-1.2-3.19-1.85-5.13-1.7-1.3.1-2.41.62-3.35,1.53-.07.07-.13.14-.21.2-.22.18-.48.17-.66-.02-.18-.18-.21-.46-.01-.66.27-.28.56-.56.88-.79,2.08-1.5,4.33-1.59,6.66-.73,1.31.48,2.41,1.28,3.38,2.28.08.08.17.16.19.18.8-.61,1.56-1.22,2.35-1.78.38-.26.82-.44,1.25-.62.19-.08.27-.16.27-.38-.01-.82.18-1.6.52-2.34.17-.37.41-.5.69-.37.3.13.36.39.19.78-1.21,2.74.25,5.8,3.13,6.55,2.71.71,5.5-1.21,5.81-3.98.28-2.53-1.31-4.73-3.82-5.22-1.28-.25-2.47.03-3.54.77-.1.07-.19.14-.29.2-.24.14-.49.09-.65-.12-.15-.21-.11-.5.11-.68.59-.47,1.25-.81,1.97-1.01,3.3-.93,6.65,1.24,7.17,4.63,0,.05.04.09.06.14v1.4Zm-18.26,14.37c-.66.08-1.2.12-1.74.2-2.32.39-4.64.79-6.97,1.17-.24.04-.32.11-.32.35,0,1.91,0,3.83,0,5.74,0,.24.08.32.3.38,2.71.73,5.43,1.46,8.13,2.22,1.25.35,2.49.53,3.76.13,3.15-1,6.31-2,9.45-3.03.32-.1.64-.36.84-.64.44-.6.14-1.27-.6-1.3-.51-.02-1.03.09-1.53.18-1.59.3-3.19.6-4.78.94-1.04.22-2.06.32-3.12.09-1.16-.26-2.33-.44-3.5-.65-.93-.16-1.57-.94-1.44-1.79.15-.97.9-1.51,1.9-1.38.95.12,1.89.26,2.85.35.35.03.73-.02,1.06-.13.6-.21.81-.86.45-1.38-.2-.28-.5-.54-.81-.68-.37-.17-.79-.22-1.2-.3-.95-.17-1.9-.33-2.74-.47Zm-10.02,8.52v-7.81H.98v7.81h3.41Z"/><path class="cls-1" d="m17.59,13.55c-.59,1.04-1.16,2.03-1.73,3.03-.31.55-.69.56-1.03.03-.34-.53-.68-1.07-1.04-1.65-.27.45-.53.85-.76,1.26-.16.28-.37.4-.69.39-.9-.02-1.81,0-2.71,0-.37,0-.58-.18-.58-.48,0-.3.21-.47.59-.48.79,0,1.57,0,2.36,0,.18,0,.29-.06.38-.21.29-.5.59-.98.88-1.48.35-.58.7-.58,1.06,0,.32.51.65,1.02,1,1.58.08-.12.14-.21.19-.31.53-.92,1.06-1.84,1.58-2.76.12-.21.24-.4.52-.41.28,0,.4.19.52.4.73,1.34,1.47,2.68,2.2,4.02.05.1.11.2.19.32.4-.67.79-1.3,1.16-1.95.15-.26.34-.37.64-.37,1.24.01,2.49,0,3.73,0,.38,0,.59.16.6.47,0,.31-.21.49-.61.49-1.11,0-2.21,0-3.32,0-.19,0-.3.05-.4.22-.43.75-.88,1.5-1.33,2.25-.3.5-.71.49-.99-.02-.73-1.33-1.46-2.66-2.19-3.99-.06-.11-.13-.22-.21-.36Z"/><path class="cls-1" d="m27.5,5.19c.46,0,.88,0,1.3,0,.34,0,.54.17.56.44.03.33-.17.53-.55.54-.42.01-.85,0-1.31,0,0,.45,0,.87,0,1.29,0,.26-.08.47-.33.56-.33.13-.64-.11-.65-.52-.01-.42,0-.85,0-1.33-.35,0-.69,0-1.02,0-.13,0-.26,0-.38,0-.3-.03-.48-.22-.47-.5,0-.27.19-.47.49-.48.38-.02.77,0,1.15,0,.06,0,.12,0,.23-.01,0-.43,0-.85,0-1.27,0-.28.08-.51.39-.57.33-.07.58.15.59.53.01.42,0,.85,0,1.33Z"/></g></svg>