<?xml version="1.0" encoding="UTF-8"?><svg id="Layer_2" xmlns="http://www.w3.org/2000/svg" viewBox="0 0 31.57 32.17"><defs><style>.cls-1{fill:#fff;}.cls-2{fill:#4da234;}.cls-3{fill:#025780;}.cls-4{fill:none;}</style></defs><g id="Capa_1"><path class="cls-4" d="m3.39,21c-.52-.62-.74-1.32-.77-2.02v1.02l.77,1.01Z"/><path class="cls-4" d="m1.74,22.13c-.47.05-.77.51-.65.96.11.39.4.59.89.59,2.05,0,4.11,0,6.16,0,.08,0,.16-.01.24-.02,0,0-1.37-1.4-2.74-1.52-.04,0-.08-.02-.12-.02-1.19,0-2.38,0-3.57,0-.07,0-.14,0-.22.01Z"/><path class="cls-4" d="m1.07,18.88v2.23c.77-.04,1.53-.07,2.32-.11l-.77-1.01v-1.02s0-.07,0-.1h-1.54Z"/><path class="cls-4" d="m8.4,24.75v.36c0-.12,0-.24,0-.36h0Z"/><path class="cls-4" d="m2.62,16.93s0-.02,0-.03c0-1.67,0-3.34,0-5-.03.12-.07.25-.1.38-.24,1.05.06,4.26.1,4.66Z"/><path class="cls-4" d="m2.6,11.2c-.05-.39-.36-.66-.76-.66-.47,0-.78.34-.79.87,0,.92,0,1.85,0,2.77,0,.91,0,1.83,0,2.74,0,.15.02.31.06.45.09.29.39.5.71.51.32,0,.65-.2.74-.5.04-.14.05-.3.05-.45-.04-.4-.34-3.61-.1-4.66.03-.13.06-.25.1-.38,0-.13,0-.26,0-.39,0-.1,0-.21-.02-.31Z"/><path class="cls-4" d="m8.39,23.66v-1.53c-.1,0-.17-.02-.24-.02-.87,0-1.75,0-2.62,0,.04,0,.08.02.12.02,1.37.12,2.74,1.52,2.74,1.52Z"/><path class="cls-4" d="m16.29,15.76c.01-.32-.18-.55-.53-.6-.89-.11-1.77-.23-2.66-.3-.77-.06-1.46-.26-2.04-.8-.45-.41-.96-.77-1.44-1.15-.69-.55-1.38-1.09-2.08-1.64-.5.4-1,.26-1.5.05-.5-.21-.92-.54-1.15-1.04-.7.31-1.18,1.06-1.18,1.83,0,2.01,0,4.03,0,6.04,0,.07,0,.14.01.23h3.62l.18-2.03,1.88-.07h0s.06-.02.09-.03c-.08-.07-.16-.14-.23-.21-.54-.45-1.07-.89-1.61-1.34-.33-.28-.38-.56-.17-.82.21-.26.53-.26.87,0,.05.04.09.08.14.12.72.6,1.44,1.2,2.15,1.79.35.29.75.48,1.21.49h3.85c.35,0,.56-.22.58-.53Z"/><path class="cls-4" d="m10.92,18.41c6.28,0,12.55,0,18.83,0,.12,0,.25,0,.37-.03.27-.06.4-.26.39-.52-.01-.26-.16-.44-.44-.48-.11-.02-.23,0-.34,0-3.33,0-6.66,0-9.98,0s-6.68,0-10.02,0c-.53,0-.79.17-.78.52,0,.27.17.43.49.48h1.42s.04.02.06.03Z"/><path class="cls-4" d="m17.6,16.29h-.21s0,0,0,0c.07,0,.14,0,.21,0Z"/><path class="cls-4" d="m7.52,16.35l-.18,2.03h.61c-.19-1.15.15-1.64,1.46-2.1h0l-1.88.07Z"/><path class="cls-4" d="m10.92,18.41s-.04-.02-.06-.03h-1.42c.08.01.17.03.28.03h1.2Z"/><path class="cls-4" d="m11.87,16.29c1.27,0,2.55,0,3.82,0,0,0,0,0,.01,0h-3.85s.01,0,.02,0Z"/><path class="cls-4" d="m10.06,31.52c-1.02-.24-1.65-1.06-1.66-2.16,0-1.42,0-2.84,0-4.25l-.56,4.41.66,2.65,2.16-.61c-.2.01-.4,0-.6-.04Z"/><path class="cls-4" d="m9.89,19.48c-1.93,0-3.86,0-5.8,0h-.3c.18.85,1,1.53,1.87,1.55.84.02,1.69,0,2.53,0,.9,0,1.3.4,1.3,1.29,0,2.32,0,4.64,0,6.97,0,.16,0,.33.05.49.14.47.62.79,1.08.74.58-.07.95-.49.95-1.13,0-2.75.01-5.51,0-8.26,0-1.01-.67-1.64-1.68-1.64Z"/><path class="cls-4" d="m21.96,1.05c-.25,0-.49,0-.74,0-.51,0-.69.18-.69.68,0,1.7,0,3.41,0,5.11s0,3.43,0,5.14c0,.43.18.62.61.63.25,0,.49,0,.74,0,.58,0,.74-.17.74-.76,0-2.38,0-4.76,0-7.15,0-1,0-1.99,0-2.99,0-.48-.19-.68-.67-.68Z"/><path class="cls-4" d="m17.87,22.14h-2.58v1.52h2.58v-1.52Z"/><path class="cls-4" d="m15.3,21.04h.35c.73,0,1.46,0,2.19,0,.65,0,1.09.43,1.11,1.07.01.54.01,1.09,0,1.63-.02.57-.45.98-1.01.99-.55,0-1.11,0-1.66,0-.32,0-.63,0-.96,0v1.05c.85,0,1.69,0,2.52,0,.69,0,1.11.42,1.13,1.11,0,.48,0,.97,0,1.45,0,.73-.43,1.14-1.16,1.14-.82,0-1.64,0-2.48,0-.11.88.04,1.05.88,1.05,4.17,0,8.35,0,12.52,0,.6,0,.77-.17.77-.77,0-3.31,0-6.62,0-9.93v-.32h-14.17v1.54Z"/><path class="cls-4" d="m17.87,26.86h-2.57v1.53h2.57v-1.53Z"/><path class="cls-4" d="m6.82,10.41v-1.42c-.36-.07-.68-.14-1.01-.21-.11,1.09.21,1.61,1.01,1.63Z"/><path class="cls-4" d="m12.63,29.56c0,.78-.47,1.43-1.12,1.77l1.8-.51.15-9.95-1.22-1.37c.13.48.37.95.38,1.43.04,2.88.03,5.75.01,8.63Z"/><path class="cls-4" d="m8.56,3.96c.22-.45.43-.87.64-1.31-.87,0-1.73-.04-2.59.01-.7.04-1.28.71-1.3,1.43.39-.04.77-.08,1.16-.12.71-.06,1.4-.62,2.09-.02Z"/><path class="cls-4" d="m5.4,6.88c.24.6.67.94,1.29,1,.59.06,1.05-.2,1.4-.67.3-.42.35-.89.32-1.29,0-.23,0-.36,0-.49,0-.39-.42-.68-.82-.62-.75.13-1.51.24-2.27.33-.31.04-.44.27-.52.49-.05.13.04.34.12.49.14.26.37.49.48.76Z"/><path class="cls-2" d="m19.61,16.29c-.67,0-1.34,0-2,0h2s0,0,0,0Z"/><path class="cls-2" d="m11.51,31.33l-.85.24c.3-.02.59-.1.85-.24Z"/><path class="cls-1" d="m8.49,14.01s-.09-.08-.14-.12c-.33-.27-.65-.27-.87,0-.21.26-.15.55.17.82.53.45,1.07.89,1.61,1.34.08.06.15.13.23.21-.03.01-.06.02-.09.03h2.45c-.46,0-.86-.19-1.21-.48-.72-.6-1.44-1.19-2.15-1.79Z"/><path class="cls-3" d="m8.15,23.68c-2.05,0-4.11,0-6.16,0-.49,0-.78-.2-.89-.59-.13-.45.18-.91.65-.96.07,0,.14-.01.22-.01,1.19,0,2.38,0,3.57,0-1.3-.17-2.14-1.12-2.14-1.12-.79.04-1.55.07-2.32.11v-2.23h1.54s0,.07,0,.1v-2.01s0-.01,0-.04c0,.15,0,.31-.05.45-.09.3-.42.51-.74.5-.31,0-.61-.21-.71-.51-.05-.14-.06-.3-.06-.45,0-.91,0-1.83,0-2.74,0-.92,0-1.85,0-2.77,0-.53.32-.87.79-.87.4,0,.71.27.76.66.01.1.02.2.02.31,0,.13,0,.26,0,.39.27-.95.67-1.74.67-1.74-.29-.32-.65-.58-1.11-.66-.95-.16-1.79.34-2.1,1.26-.02.06-.05.11-.07.16v12.33c.07.17.12.35.21.51.35.62.88.97,1.6.97.61,0,1.21,0,1.84,0v4.74c-.69,0-1.37,0-2.05,0-.36,0-.58.23-.56.55.02.3.23.44.42.5.11.34.18.64.3.92.04.08.23.12.36.12.37,0,.46-.19.54-1.02h3.11c.06.42-.14.99.56,1.02.37.02.47-.19.52-1.01.07-.03.15-.05.22-.09.23-.12.33-.31.28-.56-.05-.26-.21-.43-.48-.43-.58,0-1.15,0-1.73,0-.12,0-.24,0-.38,0v-4.72h3.64v-1.09c-.09,0-.17.02-.25.02Z"/><path class="cls-3" d="m29.86,16.3c-2.01,0-4.03,0-6.04,0h-.42c.35-.59.27-1.2.27-1.81,0-4.18-.02-8.36.01-12.55,0-.96-.32-1.62-1.24-1.94h-1.73s-.05.04-.08.05c-.79.28-1.17.78-1.17,1.61,0,3.46,0,6.92,0,10.39,0,1,.67,1.64,1.68,1.65.48,0,.96,0,1.44,0,0,.57.04,1.19-.01,1.81-.04.47-.45.79-.92.79-.68,0-1.36,0-2.04,0h0s-2,0-2,0c-.07,0-.14,0-.21,0,0,0,0,0,0,0h-1.68s0,0-.01,0c-1.27,0-2.55,0-3.82,0,0,0-.01,0-.02,0h-2.45c-1.31.45-1.65.94-1.46,2.1h1.5c-.32-.05-.48-.21-.49-.48,0-.35.25-.52.78-.52,3.34,0,6.68,0,10.02,0s6.66,0,9.98,0c.11,0,.23,0,.34,0,.27.04.42.22.44.48.01.26-.12.46-.39.52-.12.03-.24.03-.37.03-6.28,0-12.55,0-18.83,0,.89.34,1.31,1.09,1.31,1.09h1.95v.37c0,3.34,0,6.68,0,10.02,0,.84.47,1.47,1.24,1.65.12.03.24.03.37.03,4.37,0,8.73,0,13.1,0,.95,0,1.62-.68,1.62-1.64,0-3.39,0-6.78,0-10.17v-.37c.6-.28,1-.71,1.04-1.38.06-1-.65-1.71-1.7-1.71Zm-7.24-4.43c0,.59-.17.76-.74.76-.25,0-.49,0-.74,0-.43-.01-.61-.2-.61-.63,0-1.71,0-3.43,0-5.14s0-3.41,0-5.11c0-.5.18-.68.69-.68.25,0,.49,0,.74,0,.47,0,.67.2.67.68,0,1,0,1.99,0,2.99,0,2.38,0,4.76,0,7.15Zm-7.34,10.27h2.58v1.52h-2.58v-1.52Zm0,4.72h2.57v1.53h-2.57v-1.53Zm14.18-7.04c0,3.31,0,6.62,0,9.93,0,.61-.16.77-.77.77-4.17,0-8.35,0-12.52,0-.84,0-.99-.17-.88-1.05.84,0,1.66,0,2.48,0,.73,0,1.15-.41,1.16-1.14,0-.48,0-.97,0-1.45-.01-.69-.44-1.1-1.13-1.11-.83,0-1.66,0-2.52,0v-1.05c.33,0,.64,0,.96,0,.55,0,1.11,0,1.66,0,.56-.01.99-.42,1.01-.99.02-.54.02-1.09,0-1.63-.01-.64-.46-1.06-1.11-1.07-.73,0-1.46,0-2.19,0h-.35v-1.54h14.17v.32Z"/><path class="cls-1" d="m10.92,18.41h-1.2c-.11,0-.2-.01-.28-.03H3.71c0-.08-.01-.15-.01-.23,0-2.01,0-4.03,0-6.04,0-.78.48-1.52,1.18-1.83.23.5.65.83,1.15,1.04.5.21,1,.35,1.5-.05.7.55,1.39,1.09,2.08,1.64.48.38.99.74,1.44,1.15.59.53,1.27.74,2.04.8.89.07,1.77.19,2.66.3.35.04.55.27.53.6-.01.31-.23.53-.58.53h1.68s-.05-.01-.03,0c-.02-.36.01-.72-.07-1.04-.17-.68-.77-1.1-1.56-1.18-1-.1-2-.2-3-.33-.25-.03-.52-.14-.72-.3-1.32-1.02-2.62-2.05-3.92-3.09-.1-.08-.15-.24-.19-.37-.03-.08,0-.18,0-.28-.07-.59.04-1.04.61-1.42.72-.48.96-1.3.98-2.16.01-.48,0-.97.06-1.44.07-.59.33-1.12.72-1.57.26-.31.37-.64.19-1.02-.18-.38-.51-.51-.91-.51-.99,0-1.97-.03-2.96.04-1.34.09-2.36,1.22-2.38,2.57,0,.26-.05.48-.22.7-.48.62-.36,1.46.18,2.02.33.34.52.78.58,1.27.07.62.01,1.12-.7,1.37-.28.1-.49.4-.75.62,0,0-.4.78-.67,1.74,0,1.67,0,3.34,0,5,0,.01,0,.02,0,.03,0,.03,0,.04,0,.04v2.01c.03.7.24,1.41.77,2.02,0,0,.84.95,2.14,1.12.87,0,1.75,0,2.62,0,.07,0,.14,0,.24.02v2.62h.01v.36c0,1.42,0,2.84,0,4.25,0,1.1.64,1.92,1.66,2.16.2.05.4.05.6.04l.85-.24c.64-.34,1.11-.99,1.12-1.77.02-2.88.02-5.75-.01-8.63,0-.48-.25-.95-.38-1.43,0,0-.42-.75-1.31-1.09Zm-4.1-8c-.8-.02-1.12-.53-1.01-1.63.33.07.65.13,1.01.21v1.42Zm-.21-7.74c.86-.05,1.72-.01,2.59-.01-.21.44-.42.86-.64,1.31-.69-.61-1.38-.04-2.09.02-.38.03-.77.08-1.16.12.02-.72.6-1.39,1.3-1.43Zm-1.3,2.47c.76-.09,1.52-.2,2.27-.33.39-.07.82.22.82.62,0,.13,0,.27,0,.49.03.4-.01.87-.32,1.29-.35.47-.81.74-1.4.67-.62-.07-1.04-.41-1.29-1-.11-.27-.34-.5-.48-.76-.08-.15-.17-.36-.12-.49.09-.22.21-.45.52-.49Zm5.3,25.38c-.46.06-.94-.26-1.08-.74-.04-.15-.05-.32-.05-.49,0-2.32,0-4.64,0-6.97,0-.89-.41-1.29-1.3-1.29-.84,0-1.69,0-2.53,0-.87-.02-1.69-.7-1.87-1.55h.3c1.93,0,3.86,0,5.8,0,1.01,0,1.67.63,1.68,1.64.01,2.75,0,5.51,0,8.26,0,.64-.37,1.06-.95,1.13Z"/></g></svg>