<?xml version="1.0" encoding="UTF-8"?><svg id="Layer_2" xmlns="http://www.w3.org/2000/svg" viewBox="0 0 273.21 132.85"><defs><style>.cls-1{fill:#afafaf;}</style></defs><g id="Capa_1"><path class="cls-1" d="m241.88,10.86c-11.29,0-20.48,9.19-20.48,20.48,0,.46-.37.83-.83.83s-.83-.37-.83-.83c0-12.21,9.93-22.14,22.14-22.14s22.14,9.93,22.14,22.14-9.93,22.14-22.14,22.14c-.46,0-.83-.37-.83-.83s.37-.83.83-.83c11.29,0,20.48-9.19,20.48-20.48s-9.19-20.48-20.48-20.48Z"/><path class="cls-1" d="m220.56,100.68h21.31c.46,0,.83.37.83.83s-.37.83-.83.83h-20.46c.44,10.91,9.45,19.65,20.46,19.65s20.48-9.19,20.48-20.48-9.19-20.48-20.48-20.48c-.46,0-.83-.37-.83-.83s.37-.83.83-.83c12.21,0,22.14,9.93,22.14,22.14s-9.93,22.14-22.14,22.14-22.14-9.93-22.14-22.14c0-.46.37-.83.83-.83Z"/><path class="cls-1" d="m241.87,131.19c16.36,0,29.67-13.31,29.67-29.67s-13.31-29.67-29.67-29.67c-.46,0-.83-.37-.83-.83s.37-.83.83-.83c8.37,0,16.24,3.26,22.16,9.18,5.92,5.92,9.18,13.79,9.18,22.16s-3.26,16.24-9.18,22.16c-5.92,5.92-13.79,9.18-22.16,9.18s-16.24-3.26-22.16-9.18-9.18-13.79-9.18-22.16c0-.46.37-.83.83-.83s.83.37.83.83c0,16.36,13.31,29.67,29.67,29.67Z"/><path class="cls-1" d="m193.84,31.34c0,12.21-9.93,22.14-22.14,22.14s-22.14-9.93-22.14-22.14,9.93-22.14,22.14-22.14c.46,0,.83.37.83.83s-.37.83-.83.83c-11.29,0-20.48,9.19-20.48,20.48s9.19,20.48,20.48,20.48,20.03-8.74,20.46-19.65h-20.46c-.46,0-.83-.37-.83-.83s.37-.83.83-.83h21.31c.46,0,.83.37.83.83Z"/><path class="cls-1" d="m149.54,9.18c5.92-5.92,13.79-9.18,22.16-9.18.46,0,.83.37.83.83s-.37.83-.83.83c-16.36,0-29.67,13.31-29.67,29.67s13.31,29.67,29.67,29.67,29.67-13.31,29.67-29.67c0-.46.37-.83.83-.83s.83.37.83.83c0,8.37-3.26,16.24-9.18,22.16-5.92,5.92-13.79,9.18-22.16,9.18s-16.24-3.26-22.16-9.18c-5.92-5.92-9.18-13.79-9.18-22.16s3.26-16.24,9.18-22.16Z"/><path class="cls-1" d="m193.01,102.35c-.46,0-.83-.37-.83-.83,0-11.29-9.19-20.48-20.48-20.48s-20.48,9.19-20.48,20.48,9.19,20.48,20.48,20.48c.46,0,.83.37.83.83s-.37.83-.83.83c-12.21,0-22.14-9.93-22.14-22.14s9.93-22.14,22.14-22.14,22.14,9.93,22.14,22.14c0,.46-.37.83-.83.83Z"/><path class="cls-1" d="m80.2,30.5h21.31c.46,0,.83.37.83.83s-.37.83-.83.83h-20.46c.44,10.91,9.45,19.65,20.46,19.65s20.48-9.19,20.48-20.48-9.19-20.48-20.48-20.48c-.46,0-.83-.37-.83-.83s.37-.83.83-.83c12.21,0,22.14,9.93,22.14,22.14s-9.93,22.14-22.14,22.14-22.14-9.93-22.14-22.14c0-.46.37-.83.83-.83Z"/><path class="cls-1" d="m71.01,30.5c.46,0,.83.37.83.83,0,16.36,13.31,29.67,29.67,29.67s29.67-13.31,29.67-29.67S117.88,1.66,101.52,1.66c-.46,0-.83-.37-.83-.83s.37-.83.83-.83c8.37,0,16.24,3.26,22.16,9.18,5.92,5.92,9.18,13.79,9.18,22.16s-3.26,16.24-9.18,22.16c-5.92,5.92-13.79,9.18-22.16,9.18s-16.24-3.26-22.16-9.18c-5.92-5.92-9.18-13.79-9.18-22.16,0-.46.37-.83.83-.83Z"/><path class="cls-1" d="m31.34,122c11.01,0,20.03-8.74,20.46-19.65h-20.46c-.46,0-.83-.37-.83-.83s.37-.83.83-.83h21.31c.46,0,.83.37.83.83,0,12.21-9.93,22.14-22.14,22.14s-22.14-9.93-22.14-22.14,9.93-22.14,22.14-22.14c.46,0,.83.37.83.83s-.37.83-.83.83c-11.29,0-20.48,9.19-20.48,20.48s9.19,20.48,20.48,20.48Z"/><path class="cls-1" d="m52.65,32.17c-.46,0-.83-.37-.83-.83,0-11.29-9.19-20.48-20.48-20.48S10.86,20.04,10.86,31.34s9.19,20.48,20.48,20.48c.46,0,.83.37.83.83s-.37.83-.83.83c-12.21,0-22.14-9.93-22.14-22.14S19.13,9.19,31.34,9.19s22.14,9.93,22.14,22.14c0,.46-.37.83-.83.83Z"/><path class="cls-1" d="m32.17,71.01c0,.46-.37.83-.83.83-16.36,0-29.67,13.31-29.67,29.67s13.31,29.67,29.67,29.67,29.67-13.31,29.67-29.67c0-.46.37-.83.83-.83s.83.37.83.83c0,8.37-3.26,16.24-9.18,22.16-5.92,5.92-13.79,9.18-22.16,9.18s-16.24-3.26-22.16-9.18C3.26,117.75,0,109.89,0,101.52s3.26-16.24,9.18-22.16c5.92-5.92,13.79-9.18,22.16-9.18.46,0,.83.37.83.83Z"/><path class="cls-1" d="m61.84,32.17c-.46,0-.83-.37-.83-.83C61.01,14.97,47.7,1.66,31.34,1.66S1.66,14.97,1.66,31.34s13.31,29.67,29.67,29.67c.46,0,.83.37.83.83s-.37.83-.83.83c-8.37,0-16.24-3.26-22.16-9.18C3.26,47.57,0,39.71,0,31.34S3.26,15.1,9.18,9.18C15.1,3.26,22.97,0,31.34,0s16.24,3.26,22.16,9.18c5.92,5.92,9.18,13.79,9.18,22.16,0,.46-.37.83-.83.83Z"/><path class="cls-1" d="m101.52,81.04c-11.29,0-20.48,9.19-20.48,20.48,0,.46-.37.83-.83.83s-.83-.37-.83-.83c0-12.21,9.93-22.14,22.14-22.14s22.14,9.93,22.14,22.14-9.93,22.14-22.14,22.14c-.46,0-.83-.37-.83-.83s.37-.83.83-.83c11.29,0,20.48-9.19,20.48-20.48s-9.19-20.48-20.48-20.48Z"/><path class="cls-1" d="m123.67,123.67c-5.92,5.92-13.79,9.18-22.16,9.18-.46,0-.83-.37-.83-.83s.37-.83.83-.83c16.36,0,29.67-13.31,29.67-29.67s-13.31-29.67-29.67-29.67-29.67,13.31-29.67,29.67c0,.46-.37.83-.83.83s-.83-.37-.83-.83c0-8.37,3.26-16.24,9.18-22.16,5.92-5.92,13.79-9.18,22.16-9.18s16.24,3.26,22.16,9.18c5.92,5.92,9.18,13.79,9.18,22.16s-3.26,16.24-9.18,22.16Z"/><path class="cls-1" d="m202.2,102.35c-.46,0-.83-.37-.83-.83,0-16.36-13.31-29.67-29.67-29.67s-29.67,13.31-29.67,29.67,13.31,29.67,29.67,29.67c.46,0,.83.37.83.83s-.37.83-.83.83c-8.37,0-16.24-3.26-22.16-9.18-5.92-5.92-9.18-13.79-9.18-22.16s3.26-16.24,9.18-22.16c5.92-5.92,13.79-9.18,22.16-9.18s16.24,3.26,22.16,9.18c5.92,5.92,9.18,13.79,9.18,22.16,0,.46-.37.83-.83.83Z"/><path class="cls-1" d="m264.03,53.49c-5.92,5.92-13.79,9.18-22.16,9.18-.46,0-.83-.37-.83-.83s.37-.83.83-.83c16.36,0,29.67-13.31,29.67-29.67s-13.31-29.67-29.67-29.67-29.67,13.31-29.67,29.67c0,.46-.37.83-.83.83s-.83-.37-.83-.83c0-8.37,3.26-16.24,9.18-22.16C225.64,3.26,233.51,0,241.88,0s16.24,3.26,22.16,9.18c5.92,5.92,9.18,13.79,9.18,22.16s-3.26,16.24-9.18,22.16Z"/></g></svg>