<?xml version="1.0" encoding="UTF-8"?>
<svg id="Layer_2" xmlns="http://www.w3.org/2000/svg" viewBox="0 0 103.01 12.51">
  <defs>
    <style>.cls-1{fill:#fff;}.cls-2{fill:#fff;}</style>
  </defs>
  <g id="Capa_1">
    <path class="cls-2" d="m10.65,7.61v4.15c-1.3.46-3.04.75-4.45.75-3.9,0-6.2-2.11-6.2-6.07S2.79,0,6.86,0c1.25,0,2.52.25,3.57.63v3.22h-1.22l-.64-1.66c-.59-.38-1.29-.57-2.05-.57-2.55,0-3.82,1.86-3.82,4.63s1.47,4.63,4.02,4.63c.52,0,1-.07,1.45-.23v-3l-1.38-.7v-.89h4.75v.91l-.89.66Z"/><path class="cls-2" d="m18.42,12.49c-3.81,0-5.88-2.36-5.88-6.08C12.55,2.41,15.53.04,18.82.04s5.88,2,5.88,6.08-2.95,6.38-6.27,6.38Zm.02-10.81c-1.7,0-3.16,1.64-3.16,4.45,0,2.63,1.14,4.7,3.54,4.7,1.64,0,3.16-1.55,3.16-4.5,0-2.79-1.23-4.65-3.54-4.65Z"/><path class="cls-1" d="m38.9,12.32h-8.15v-.9l1.45-.66V1.79l-1.45-.68V.23h5.39v.88l-1.45.68v9.08h2.34l.91-1.9h1.22l-.27,3.35Z"/><path class="cls-1" d="m46.23,12.32v-.88l1.02-.5-.34-1.06h-3.56l-.34,1.06,1,.5v.88h-3.87v-.88l.95-.52c.52-1.41,1.07-2.81,1.62-4.2.55-1.39,1.15-2.8,1.78-4.23h2c.63,1.44,1.23,2.86,1.78,4.24.55,1.38,1.08,2.78,1.58,4.19l.84.52v.88h-4.48Zm.23-3.74c-.17-.47-.34-.93-.52-1.39-.18-.46-.36-.92-.54-1.37-.06-.14-.11-.28-.16-.41-.05-.13-.1-.26-.14-.39-.04.1-.07.2-.11.3s-.08.23-.13.36c-.18.49-.36.97-.55,1.45-.19.48-.36.96-.53,1.45h2.67Z"/><path class="cls-1" d="m61.03,9.27c0,.44-.1.85-.31,1.23-.21.38-.51.7-.91.98-.4.27-.89.49-1.48.64-.58.16-1.25.23-1.99.23-.37,0-.83,0-1.39-.02-.55-.01-1.15-.02-1.78-.02h-1.41v-.9l1.27-.52V3.96l-1.27-.54v-.88h1.36c.42,0,.94,0,1.57-.03.63-.02,1.29-.03,2-.03,1.23,0,2.18.19,2.85.58.67.39,1,1,1,1.83,0,.45-.13.87-.38,1.24-.25.37-.62.64-1.11.82.61.17,1.09.45,1.45.85.36.4.54.89.54,1.46Zm-2.99-4.08c0-.18-.02-.36-.07-.53-.05-.17-.14-.33-.27-.46-.13-.13-.31-.24-.55-.32-.23-.08-.53-.13-.9-.13-.19,0-.34,0-.45,0-.11,0-.23.02-.38.03v2.9c.11.01.23.02.36.02h.5c.66,0,1.11-.15,1.37-.44.26-.29.38-.65.38-1.08Zm.45,4.27c0-.52-.2-.92-.61-1.18-.41-.27-.97-.4-1.7-.4h-.4c-.13,0-.24,0-.35.02v3.12c.12.01.27.02.45.03.18,0,.39,0,.63,0,.69,0,1.2-.16,1.51-.48.32-.32.47-.69.47-1.1Z"/><path class="cls-1" d="m73.01,7.3c0,.81-.16,1.54-.47,2.18-.31.64-.72,1.18-1.24,1.63-.52.45-1.12.79-1.8,1.02-.68.23-1.39.35-2.13.35-.85,0-1.6-.12-2.26-.35-.66-.23-1.21-.56-1.66-.98-.45-.42-.79-.94-1.02-1.55-.23-.61-.35-1.29-.35-2.04,0-.81.16-1.54.47-2.18.31-.64.72-1.19,1.24-1.63.52-.44,1.12-.78,1.79-1.01.67-.23,1.38-.35,2.12-.35s1.47.1,2.12.3c.65.2,1.21.51,1.68.92.47.41.84.93,1.1,1.54.26.61.39,1.33.39,2.16Zm-2.61.19c0-1.1-.26-1.96-.77-2.61-.51-.64-1.26-.96-2.24-.96-.36,0-.7.07-1.02.22s-.61.37-.85.66c-.24.29-.44.65-.59,1.07-.15.42-.22.91-.22,1.46,0,.51.06.99.19,1.43.13.44.31.82.56,1.14.25.32.56.57.94.76s.81.28,1.32.28c.35,0,.68-.07,1-.21.32-.14.61-.36.86-.65.25-.29.45-.65.6-1.08s.22-.93.22-1.5Z"/><path class="cls-1" d="m79.69,12.32l-1.94-4.14h-.62v2.74l1.02.52v.88h-4.69v-.9l1.27-.52V3.96l-1.27-.54v-.88h1.27c.11,0,.28,0,.52,0,.24,0,.51-.01.82-.02.31,0,.64-.01,1-.02.36,0,.7,0,1.04,0,1.28,0,2.26.21,2.94.64.69.43,1.03,1.12,1.03,2.06,0,.61-.19,1.12-.56,1.54-.37.42-.88.73-1.53.93.13.18.26.39.38.63l1.36,2.61.82.54v.88h-2.87Zm-.09-6.94c0-.46-.14-.84-.43-1.14-.28-.3-.75-.45-1.4-.45-.13,0-.25,0-.35,0-.1,0-.2,0-.29,0v3.1c.07.01.16.02.28.02h.36c.64,0,1.1-.15,1.4-.46s.44-.67.44-1.09Z"/><path class="cls-1" d="m89.77,12.32v-.88l1.02-.5-.34-1.06h-3.56l-.34,1.06,1,.5v.88h-3.87v-.88l.95-.52c.52-1.41,1.07-2.81,1.62-4.2.55-1.39,1.15-2.8,1.78-4.23h2c.63,1.44,1.23,2.86,1.78,4.24.55,1.38,1.08,2.78,1.58,4.19l.84.52v.88h-4.48Zm.23-3.74c-.17-.47-.34-.93-.52-1.39-.18-.46-.36-.92-.54-1.37-.06-.14-.11-.28-.16-.41-.05-.13-.1-.26-.14-.39-.04.1-.07.2-.11.3s-.08.23-.13.36c-.18.49-.36.97-.55,1.45-.19.48-.36.96-.53,1.45h2.67Z"/><path class="cls-1" d="m102.74,12.32h-7.36v-.9l1.27-.52V3.96l-1.27-.54v-.88h4.94v.88l-1.27.54v7h1.9l.81-1.5h1.25l-.27,2.86Z"/>
  </g>
</svg>