<?xml version="1.0" encoding="iso-8859-1"?>
<!-- Generator: Adobe Illustrator 19.0.0, SVG Export Plug-In . SVG Version: 6.00 Build 0)  -->
<svg version="1.1" id="Capa_1" xmlns="http://www.w3.org/2000/svg" xmlns:xlink="http://www.w3.org/1999/xlink" x="0px" y="0px"
	 width="185.291px" height="62.412px" viewBox="0 0 185.291 62.412" style="enable-background:new 0 0 185.291 62.412;"
	 xml:space="preserve">
<g>
	<path style="fill:#E9E9E8;" d="M16.096,55.02v6.261c-1.975,0.698-4.593,1.132-6.727,1.132C3.488,62.413,0,59.232,0,53.238
		c0-5.802,4.211-9.722,10.374-9.722c1.88,0,3.797,0.38,5.391,0.948v4.857h-1.836l-0.969-2.505c-0.892-0.57-1.942-0.865-3.106-0.865
		c-3.857,0-5.779,2.802-5.779,6.989c0,4.126,2.214,6.993,6.077,6.993c0.781,0,1.508-0.112,2.187-0.356V55.04l-2.081-1.051v-1.346
		h7.185v1.379L16.096,55.02z"/>
	<path style="fill:#E9E9E8;" d="M29.311,62.095l-2.935-6.242h-0.95v4.135l1.542,0.781v1.326h-7.077v-1.357l1.913-0.775V49.484
		l-1.913-0.809v-1.323h1.913c0.623,0,3.082-0.084,5.109-0.084c3.831,0,5.988,1.24,5.988,4.081c0,1.81-1.186,3.103-3.133,3.726
		c0.219,0.292,0.411,0.62,0.571,0.94l2.048,3.948l1.246,0.806v1.326H29.311z M26.394,49.217c-0.402,0-0.698,0.022-0.968,0.022v4.699
		c0.217,0.022,0.566,0.022,0.968,0.022c1.922,0,2.783-1.076,2.783-2.347C29.177,50.213,28.372,49.217,26.394,49.217"/>
	<path style="fill:#E9E9E8;" d="M50.012,49.484l-0.021,6.775c-0.033,3.859-2.517,6.072-6.722,6.072
		c-4.939,0-6.504-2.619-6.504-5.452v-7.426l-1.461-0.806v-1.295h6.797v1.323l-1.725,0.809v7.104c0,1.99,0.731,3.667,3.403,3.667
		c2.381,0,3.48-1.327,3.455-3.726l-0.113-7.045L45.4,48.675v-1.323h6.125v1.295L50.012,49.484z"/>
	<path style="fill:#E9E9E8;" d="M60.19,56.613c-0.348,0-0.704,0-1.029-0.025v3.375l1.92,0.775v1.357H53.66v-1.357l1.913-0.775
		V49.484l-1.913-0.809v-1.323h1.889c0.752,0,3.424-0.084,5.204-0.084c3.808,0,6.1,1.407,6.1,4.345
		C66.853,54.372,64.241,56.613,60.19,56.613 M60.267,49.217c-0.348,0-0.756,0.022-1.106,0.022v5.291
		c0.325,0.083,0.785,0.136,1.245,0.136c1.838,0,2.78-1.048,2.78-2.699C63.186,50.315,62.295,49.217,60.267,49.217"/>
	<path style="fill:#E9E9E8;" d="M77.17,62.331c-5.131,0-7.969-2.888-7.969-7.423c0-4.915,4.048-7.795,8.476-7.795
		c4.615,0,7.994,2.452,7.994,7.417C85.671,59.426,81.646,62.331,77.17,62.331 M77.196,49.406c-2.132,0-4.051,1.857-4.051,5.149
		c0,3.108,1.483,5.457,4.532,5.457c2.081,0,4.046-1.754,4.046-5.21C81.723,51.505,80.133,49.406,77.196,49.406"/>
	<path style="fill:#E9E9E8;" d="M103.242,62.387c-5.755,0-8.889-3.567-8.889-9.183c0-6.041,4.504-9.63,9.473-9.63
		c5.157,0,8.882,3.022,8.882,9.18C112.708,58.77,108.259,62.387,103.242,62.387 M103.264,46.062c-2.565,0-4.778,2.477-4.778,6.714
		c0,3.973,1.731,7.1,5.34,7.1c2.492,0,4.781-2.346,4.781-6.805C108.607,48.864,106.742,46.062,103.264,46.062"/>
	<path style="fill:#E9E9E8;" d="M124.292,62.095l-2.942-6.242h-0.951v4.135l1.538,0.781v1.326h-7.072v-1.357l1.92-0.775V49.484
		l-1.92-0.809v-1.323h1.92c0.621,0,3.08-0.084,5.101-0.084c3.833,0,6,1.24,6,4.081c0,1.81-1.196,3.103-3.139,3.726
		c0.221,0.292,0.401,0.62,0.573,0.94l2.049,3.948l1.233,0.806v1.326H124.292z M121.373,49.217c-0.399,0-0.701,0.022-0.974,0.022
		v4.699c0.222,0.022,0.575,0.022,0.974,0.022c1.914,0,2.783-1.076,2.783-2.347C124.156,50.213,123.347,49.217,121.373,49.217"/>
	<path style="fill:#E9E9E8;" d="M138.861,62.331c-5.126,0-7.964-2.888-7.964-7.423c0-4.915,4.05-7.795,8.48-7.795
		c4.617,0,7.988,2.452,7.988,7.417C147.365,59.426,143.344,62.331,138.861,62.331 M138.892,49.406c-2.139,0-4.052,1.857-4.052,5.149
		c0,3.108,1.487,5.457,4.537,5.457c2.076,0,4.047-1.754,4.047-5.21C143.424,51.505,141.836,49.406,138.892,49.406"/>
	<path style="fill:#E9E9E8;" d="M164.959,49.537v12.558h-4.095l-5.185-7.857c-0.57-0.842-1.106-1.785-1.544-2.594
		c0.118,2.233,0.223,5.207,0.3,8.26l1.65,0.834v1.357h-6.319v-1.326l1.834-0.865l0.138-10.392l-1.948-0.837v-1.323h5.832
		l5.482,8.229c0.516,0.762,0.914,1.485,1.298,2.191l-0.326-8.235l-1.591-0.89v-1.295h5.94v1.295L164.959,49.537z M159.891,45.867
		c-1.758,0-2.431-1.026-3.859-1.026c-0.76,0-1.346,0.273-1.76,0.759l-0.942-1.187c0.642-1.028,1.725-1.813,2.994-1.813
		c1.596,0,2.461,1.029,3.802,1.029c0.784,0,1.442-0.295,1.867-0.895l0.974,1.245C162.32,45.028,161.159,45.867,159.891,45.867"/>
	<path style="fill:#E9E9E8;" d="M176.783,62.331c-5.129,0-7.964-2.888-7.964-7.423c0-4.915,4.051-7.795,8.477-7.795
		c4.616,0,7.994,2.452,7.994,7.417C185.29,59.426,181.263,62.331,176.783,62.331 M176.808,49.406c-2.132,0-4.047,1.857-4.047,5.149
		c0,3.108,1.488,5.457,4.535,5.457c2.082,0,4.048-1.754,4.048-5.21C181.344,51.505,179.751,49.406,176.808,49.406"/>
	<path style="fill:#E9E9E8;" d="M92.954,0c-11.1,0.005-20.049,8.221-20.058,19.078c0.009,10.842,8.958,19.058,20.058,19.068
		c2.505,0,4.896-0.436,7.099-1.228V19.711H89.62v2.472h5.982v12.841l-0.362,0.067c-0.739,0.131-1.508,0.189-2.286,0.189
		c-4.106,0.003-7.836-1.738-10.521-4.634c-2.69-2.895-4.343-6.951-4.343-11.568c0-4.632,1.653-8.683,4.343-11.583
		c2.685-2.894,6.415-4.634,10.521-4.634c4.113,0,7.879,1.74,10.612,4.634c2.745,2.897,4.443,6.948,4.443,11.583
		c0.007,5.679-1.453,9.563-4.369,12.813v3.331c2.795-1.651,5.068-3.717,6.68-6.244c1.72-2.725,2.695-5.994,2.695-9.9
		C113.015,8.221,104.059,0.005,92.954,0"/>
</g>
</svg>
