<?xml version="1.0" encoding="UTF-8"?><svg id="Layer_2" xmlns="http://www.w3.org/2000/svg" viewBox="0 0 24.1 33"><defs><style>.cls-1{stroke:#025780;}.cls-1,.cls-2{fill:#408e3e;stroke-miterlimit:10;stroke-width:.75px;}.cls-2,.cls-3{stroke:#4da234;}.cls-3{fill:none;stroke-linecap:round;stroke-linejoin:round;stroke-width:1.5px;}</style></defs><g id="Capa_1"><path class="cls-2" d="m22.48,27.06c-.48,0-.93-.27-1.17-.49-.01-.01-.02-.02-.03-.04-.07-.1-1.63-2.36-2.37-3.74-.86-1.61-2.16-4.9-2.87-7.51-.14.93-.29,2.51-.2,4.18.08,1.7.46,3.46.69,4.51.13.61.19.9.19,1.06,0,.12-.09.21-.21.22-.04,0-3.6.23-7.7-.15-.12-.01-.21-.12-.2-.24.01-.12.12-.21.24-.2,3.47.32,6.55.2,7.4.16-.03-.19-.09-.46-.16-.76-.23-1.06-.61-2.85-.69-4.58-.07-1.49.04-2.88.12-3.57.19-1.75.33-1.77.48-1.79.11-.02.23.07.26.19.62,2.68,2.11,6.52,3.05,8.28.69,1.29,2.17,3.44,2.33,3.68.12.11.86.69,1.44.09.31-.32.27-.87-.08-1.23-.78-.78-1.89-3.27-2.22-4.17-.52-1.41-.88-2.93-1.23-4.39-.66-2.79-1.29-5.42-2.86-6.64-.54-.42-1.15-.77-1.75-1.11-.22-.13-.44-.25-.65-.38-.1-.06-.14-.2-.08-.3.06-.1.2-.14.3-.08.21.13.43.25.64.37.61.35,1.23.71,1.8,1.15,1.69,1.31,2.34,4.02,3.02,6.88.35,1.45.71,2.96,1.21,4.34.38,1.04,1.45,3.34,2.12,4.01.53.53.57,1.34.08,1.85-.29.3-.61.41-.91.41h0Z"/><path class="cls-2" d="m1.72,27.23c-.31,0-.62-.11-.91-.41-.48-.5-.45-1.31.08-1.85.45-.45,1.21-2.13,2.25-4.97v-.03c.52-1.39.86-2.82,1.19-4.21.63-2.67,1.23-5.18,2.92-6.49.56-.44,1.19-.8,1.8-1.14.22-.12.43-.25.65-.38.1-.06.24-.03.3.08.06.1.03.24-.08.3-.22.13-.43.25-.65.38-.59.34-1.21.69-1.75,1.11-1.57,1.22-2.12,3.55-2.76,6.25-.33,1.4-.68,2.85-1.2,4.26v.03c-1.09,2.94-1.86,4.62-2.37,5.13-.35.35-.39.91-.08,1.23.58.6,1.3.04,1.44-.08.18-.31,1.67-2.85,2.35-4.14.8-1.5,1.73-4.35,2.49-7.62.03-.14.15-.2.25-.19.17.02.27.03.47,1.62.08.61.21,1.85.22,3.23.01,1.68-.18,3.42-.3,4.46-.04.41-.08.73-.08.85s-.1.22-.22.22-.22-.1-.22-.22c0-.14.03-.44.08-.9.11-1.03.3-2.76.29-4.41,0-1.46-.16-2.83-.28-3.67-.44,1.76-1.32,4.95-2.32,6.82-.74,1.38-2.37,4.16-2.38,4.19-.01.02-.03.04-.04.05-.24.22-.69.49-1.17.49h0Z"/><path class="cls-1" d="m21.01,32.62c-.18,0-.34-.02-.49-.05-.27-.06-2.18-.44-4.39-.87-3.12-.61-6.66-1.29-7.28-1.45l-.28-.07c-.32-.08-.64-.15-.97-.23-.59-.14-1.66-.73-1.46-1.92.28-1.66,1.56-1.58,1.95-1.52.58.1,10.54,1.53,10.64,1.55.12.02.2.13.19.25s-.13.2-.25.19c-.41-.06-10.06-1.45-10.65-1.55-.45-.08-1.24-.03-1.44,1.15-.18,1.09,1.07,1.4,1.13,1.42.32.08.64.16.96.23l.28.07c.61.15,4.3.87,7.26,1.44,2.22.43,4.13.8,4.41.87.58.13,1.78.02,2.21-1.36.47-1.51-.3-2.73-5.71-4.81-.11-.04-.17-.17-.13-.29.04-.11.17-.17.29-.13,5.09,1.96,6.6,3.31,5.97,5.35-.4,1.3-1.43,1.72-2.25,1.72h0Z"/><path class="cls-1" d="m3.28,32.59c-.85,0-1.94-.23-2.62-1.4-.29-.51-.36-.99-.23-1.47.4-1.38,2.55-2.58,6.01-4.41.11-.06.24-.02.3.09.06.11.02.24-.09.3-3.38,1.78-5.45,2.95-5.79,4.14-.1.36-.04.73.18,1.12.81,1.41,2.34,1.21,3.08,1.11l.14-.02c.18-.02.39-.04.64-.06,1.15-.11,3.06-.28,5.59-1.06.12-.04.24.03.28.15s-.03.24-.15.28c-2.57.79-4.52.97-5.68,1.07-.24.02-.45.04-.63.06l-.14.02c-.23.03-.54.07-.9.07h0Z"/><circle class="cls-3" cx="12.24" cy="3.95" r="3.2"/></g></svg>