<?xml version="1.0" encoding="UTF-8"?><svg id="Layer_2" xmlns="http://www.w3.org/2000/svg" viewBox="0 0 28.04 28.04"><defs><style>.cls-1{fill:#4da234;}.cls-2{fill:#025780;}</style></defs><g id="Capa_1"><path class="cls-1" d="m5.85,28.04c-1.56,0-3.03-.61-4.14-1.71-2.28-2.28-2.28-5.99,0-8.28L18.05,1.71C19.15.61,20.62,0,22.19,0s3.03.61,4.14,1.71c1.11,1.11,1.71,2.57,1.71,4.14s-.61,3.03-1.71,4.14L9.99,26.32c-1.1,1.11-2.57,1.71-4.14,1.71ZM22.19.92c-1.32,0-2.56.51-3.49,1.45L2.36,18.7c-1.92,1.92-1.92,5.06,0,6.98.93.93,2.17,1.45,3.49,1.45s2.56-.51,3.49-1.45L25.68,9.34c.93-.93,1.45-2.17,1.45-3.49s-.51-2.56-1.45-3.49c-.93-.93-2.17-1.45-3.49-1.45Z"/><path class="cls-1" d="m14.02,22.11c-.12,0-.23-.04-.32-.13l-7.63-7.63c-.18-.18-.18-.47,0-.65l7.63-7.63c.17-.17.48-.17.65,0l7.63,7.63c.18.18.18.47,0,.65l-7.63,7.63c-.09.09-.21.13-.32.13Zm-6.98-8.09l6.98,6.98,6.98-6.98-6.98-6.98-6.98,6.98Z"/><path class="cls-1" d="m5.85,28.04c-1.56,0-3.03-.61-4.14-1.71-2.28-2.28-2.28-5.99,0-8.28L18.05,1.71C19.15.61,20.62,0,22.19,0s3.03.61,4.14,1.71c1.11,1.11,1.71,2.57,1.71,4.14s-.61,3.03-1.71,4.14L9.99,26.32c-1.1,1.11-2.57,1.71-4.14,1.71ZM22.19.92c-1.32,0-2.56.51-3.49,1.45L2.36,18.7c-1.92,1.92-1.92,5.06,0,6.98.93.93,2.17,1.45,3.49,1.45s2.56-.51,3.49-1.45L25.68,9.34c.93-.93,1.45-2.17,1.45-3.49s-.51-2.56-1.45-3.49c-.93-.93-2.17-1.45-3.49-1.45Z"/><path class="cls-1" d="m14.02,22.11c-.12,0-.23-.04-.32-.13l-7.63-7.63c-.18-.18-.18-.47,0-.65l7.63-7.63c.17-.17.48-.17.65,0l7.63,7.63c.18.18.18.47,0,.65l-7.63,7.63c-.09.09-.21.13-.32.13Zm-6.98-8.09l6.98,6.98,6.98-6.98-6.98-6.98-6.98,6.98Z"/><rect class="cls-2" x="18.24" y="5.97" width=".92" height=".77" transform="translate(.98 15.08) rotate(-44.98)"/><rect class="cls-2" x="21.3" y="9.03" width=".92" height=".77" transform="translate(-.29 18.13) rotate(-44.98)"/><rect class="cls-2" x="20.26" y="3.96" width=".92" height=".77" transform="translate(2.99 15.91) rotate(-44.98)"/><rect class="cls-2" x="23.31" y="7.01" width=".92" height=".77" transform="translate(1.73 18.98) rotate(-45.01)"/><rect class="cls-2" x="3.82" y="20.32" width=".92" height=".77" transform="translate(-13.38 9.08) rotate(-44.97)"/><rect class="cls-2" x="6.87" y="23.38" width=".92" height=".77" transform="translate(-14.65 12.13) rotate(-44.96)"/><rect class="cls-2" x="5.83" y="18.31" width=".92" height=".77" transform="translate(-11.37 9.92) rotate(-44.99)"/><rect class="cls-2" x="8.89" y="21.37" width=".92" height=".77" transform="translate(-12.64 12.97) rotate(-44.98)"/><path class="cls-1" d="m22.19,28.04c-1.56,0-3.03-.61-4.14-1.71L1.71,9.99c-1.11-1.11-1.71-2.57-1.71-4.14S.61,2.82,1.71,1.71C2.82.61,4.29,0,5.85,0s3.03.61,4.14,1.71l16.33,16.33c2.28,2.28,2.28,5.99,0,8.28-1.1,1.11-2.57,1.71-4.14,1.71ZM5.85.92c-1.32,0-2.56.51-3.49,1.45-.93.93-1.45,2.17-1.45,3.49s.51,2.56,1.45,3.49l16.33,16.33c.93.93,2.17,1.45,3.49,1.45s2.56-.51,3.49-1.45c1.92-1.92,1.92-5.06,0-6.98L9.34,2.36c-.93-.93-2.17-1.45-3.49-1.45Z"/><path class="cls-1" d="m14.02,22.11c-.12,0-.23-.04-.32-.13l-7.63-7.63c-.09-.09-.13-.2-.13-.32s.05-.24.13-.32l7.63-7.63c.17-.17.48-.17.65,0l7.63,7.63c.18.18.18.47,0,.65l-7.63,7.63c-.09.09-.21.13-.32.13Zm-6.98-8.09l6.98,6.98,6.98-6.98-6.98-6.98-6.98,6.98Z"/><path class="cls-1" d="m22.19,28.04c-1.56,0-3.03-.61-4.14-1.71L1.71,9.99c-1.11-1.11-1.71-2.57-1.71-4.14S.61,2.82,1.71,1.71C2.82.61,4.29,0,5.85,0s3.03.61,4.14,1.71l16.33,16.33c2.28,2.28,2.28,5.99,0,8.28-1.1,1.11-2.57,1.71-4.14,1.71ZM5.85.92c-1.32,0-2.56.51-3.49,1.45-.93.93-1.45,2.17-1.45,3.49s.51,2.56,1.45,3.49l16.33,16.33c.93.93,2.17,1.45,3.49,1.45s2.56-.51,3.49-1.45c1.92-1.92,1.92-5.06,0-6.98L9.34,2.36c-.93-.93-2.17-1.45-3.49-1.45Z"/><path class="cls-1" d="m14.02,22.11c-.12,0-.23-.04-.32-.13l-7.63-7.63c-.09-.09-.13-.2-.13-.32s.05-.24.13-.32l7.63-7.63c.17-.17.48-.17.65,0l7.63,7.63c.18.18.18.47,0,.65l-7.63,7.63c-.09.09-.21.13-.32.13Zm-6.98-8.09l6.98,6.98,6.98-6.98-6.98-6.98-6.98,6.98Z"/><rect class="cls-2" x="21.3" y="18.24" width=".77" height=".92" transform="translate(-6.87 20.82) rotate(-45.02)"/><rect class="cls-2" x="18.24" y="21.3" width=".77" height=".92" transform="translate(-9.93 19.55) rotate(-45.01)"/><rect class="cls-2" x="23.32" y="20.26" width=".77" height=".92" transform="translate(-7.71 22.82) rotate(-44.99)"/><rect class="cls-2" x="20.26" y="23.31" width=".77" height=".92" transform="translate(-10.76 21.55) rotate(-44.99)"/><rect class="cls-2" x="6.95" y="3.82" width=".77" height=".92" transform="translate(-.88 6.43) rotate(-44.98)"/><rect class="cls-2" x="3.89" y="6.87" width=".77" height=".92" transform="translate(-3.93 5.17) rotate(-44.97)"/><rect class="cls-2" x="8.96" y="5.83" width=".77" height=".92" transform="translate(-1.71 8.45) rotate(-44.98)"/><rect class="cls-2" x="5.91" y="8.89" width=".77" height=".92" transform="translate(-4.77 7.18) rotate(-44.97)"/></g></svg>