<?xml version="1.0" encoding="UTF-8"?><svg id="Layer_2" xmlns="http://www.w3.org/2000/svg" viewBox="0 0 38.59 22.74"><defs><style>.cls-1{fill:#4da234;}.cls-2{fill:#025780;}</style></defs><g id="Capa_1"><path class="cls-1" d="m19.29,22.74c-3.04,0-7.87-.96-13.6-5.55C2.28,14.46.19,11.77.1,11.66c-.13-.17-.13-.41,0-.58.09-.11,2.18-2.8,5.59-5.53C11.43.96,16.25,0,19.29,0s7.87.96,13.6,5.55c3.41,2.73,5.5,5.42,5.59,5.53.13.17.13.41,0,.58-.09.11-2.18,2.8-5.59,5.53-5.74,4.59-10.56,5.55-13.6,5.55ZM1.08,11.37c1.42,1.71,9.12,10.43,18.22,10.43s16.8-8.72,18.22-10.43c-1.42-1.71-9.12-10.43-18.22-10.43S2.5,9.66,1.08,11.37Z"/><path class="cls-2" d="m19.29,20.92c-5.27,0-9.55-4.28-9.55-9.55S14.03,1.82,19.29,1.82s9.55,4.28,9.55,9.55-4.28,9.55-9.55,9.55Zm0-18.16c-4.75,0-8.61,3.86-8.61,8.61s3.86,8.61,8.61,8.61,8.61-3.86,8.61-8.61-3.86-8.61-8.61-8.61Z"/><path class="cls-2" d="m19.29,15.69c-2.38,0-4.32-1.94-4.32-4.32s1.94-4.32,4.32-4.32,4.32,1.94,4.32,4.32-1.94,4.32-4.32,4.32Zm0-7.71c-1.86,0-3.38,1.52-3.38,3.38s1.52,3.38,3.38,3.38,3.38-1.52,3.38-3.38-1.52-3.38-3.38-3.38Z"/></g></svg>