<?xml version="1.0" encoding="UTF-8"?><svg id="Layer_2" xmlns="http://www.w3.org/2000/svg" viewBox="0 0 28.98 35.68"><defs><style>.cls-1{fill:#4c9c2e;}.cls-1,.cls-2,.cls-3{stroke:#eeeeed;stroke-miterlimit:10;stroke-width:.25px;}.cls-2{fill:none;}.cls-3{fill:#025780;}</style></defs><g id="Capa_1"><path class="cls-2" d="m18.43,20.69v-.17c0,.06,0,.11,0,.17h0Z"/><path class="cls-2" d="m6.37,12.24c-.32.46-.35.95-.06,1.44.35.58.9.73,1.56.65v-2.62c-.61-.09-1.14.02-1.5.53Z"/><path class="cls-2" d="m21.12,11.71v2.62c.64.08,1.18-.05,1.53-.61.3-.47.29-.97-.02-1.44-.36-.54-.89-.65-1.52-.57Z"/><path class="cls-2" d="m5.03,31.26c.41,0,.76-.34.78-.75.02-.42-.34-.79-.77-.79-.45,0-.78.31-.79.76,0,.45.33.78.77.78Z"/><path class="cls-2" d="m11.74,20.42c0,.39,0,.72,0,1.05q0,.81-.75,1.1s-.03.03-.06.06c.11.73.25,1.47.33,2.21.03.28.15.38.38.43.65.12,1.31.28,1.97.34,1.32.13,2.61,0,3.88-.4.08-.03.19-.12.2-.2.13-.8.25-1.6.37-2.41-.05-.03-.09-.06-.14-.07-.66-.24-.68-.26-.68-.97,0-.37,0-.73,0-1.15-1.86.78-3.66.77-5.5,0Z"/><path class="cls-2" d="m11.58,5.69c.39.09.77.28,1.14.47,1.11.57,2.24,1.13,3.47,1.36.82.15,1.66.16,2.49.2,1.33.06,2.06.66,2.3,1.97.05.26.08.52.13.79h.52c.02-.09.05-.15.06-.22.13-.94.29-1.87.36-2.81.05-.67.11-1.37-.04-2.02-.41-1.77-1.63-2.87-3.22-3.6-1.08-.49-2.22-.55-3.38-.52-1.38.03-2.77,0-4.15.08-1.04.06-1.84.58-2.18,1.63-.1.33-.28.56-.55.78-1.12.9-1.74,2.07-1.68,3.5.04.92.29,1.84.39,2.76.05.43.25.49.66.39,0-.14,0-.27,0-.4.03-1.19.28-2.31,1-3.29.67-.91,1.56-1.35,2.69-1.07Z"/><path class="cls-2" d="m23.34,24.44s0,0,0-.01c0,.04,0,.09,0,.13,0-.04,0-.08,0-.12Z"/><path class="cls-2" d="m11.5,26.46c.4,2.67.79,5.29,1.19,7.9h3.6c.4-2.64.79-5.26,1.19-7.9-2.01.48-3.97.48-5.97,0Z"/><path class="cls-2" d="m19.71,29.49c-.21-.42-.39-.86-.58-1.29-.21-.48-.16-.68.27-.99.34-.25.69-.49,1.03-.75.09-.07.18-.21.18-.31.02-.85.02-1.7,0-2.55,0-.1-.1-.25-.19-.28-.38-.14-.78-.25-1.21-.38-.58,3.83-1.15,7.63-1.72,11.43q.64.06.84-.48c.46-1.24.92-2.47,1.39-3.7.09-.24.1-.45-.02-.69Z"/><path class="cls-2" d="m15.3,19.76c2.22-.33,4.2-2.19,4.5-4.4.12-.91.09-1.84.13-2.76-.01,0-.02,0-.04,0,0-.63,0-1.26,0-1.89,0-.3-.04-.61-.09-.9-.11-.59-.34-.8-.95-.86-.27-.03-.53-.05-.8-.04-1.18.04-2.33-.15-3.41-.6-.95-.39-1.88-.84-2.81-1.27-.9-.42-1.59-.23-2.12.61-.4.64-.6,1.36-.61,2.1-.02,1.66,0,3.33,0,4.99,0,.1,0,.19.02.29.41,3.21,3.34,5.16,6.2,4.73Z"/><path class="cls-2" d="m8.62,23.29c-.21.05-.27.14-.27.35.01.81,0,1.63.02,2.44,0,.14.1.31.21.4.34.28.7.51,1.05.78.35.26.41.49.24.88-.2.47-.43.92-.61,1.4-.07.17-.08.41-.02.58.45,1.26.93,2.52,1.41,3.77q.2.54.83.47c-.57-3.81-1.14-7.6-1.71-11.42-.41.13-.78.26-1.15.35Z"/><path class="cls-2" d="m4.44,25.25v-.63c0,.21,0,.42,0,.63h0Z"/><path class="cls-3" d="m4.44,25.25h0c0,1.08,0,2.14-.01,3.21,0,.09-.17.2-.28.26-.72.41-1.11,1.02-1.08,1.84.04.85.49,1.46,1.3,1.77.96.36,2.05-.11,2.47-1.05.42-.94.05-2.06-.87-2.52-.28-.14-.34-.3-.34-.58.01-1.2.02-2.41,0-3.61,0-.07,0-.13.02-.19.05-.81.25-1.49.25-1.49.55-1.06,1.43-1.08,3.08-.96l1.59-.63v-.61c-1.06,0-2.06-.03-3.07,0-1.26.04-2.27.61-2.72,1.78l-.34,2.15v.63Zm.61,4.46c.43,0,.79.38.77.79-.02.41-.37.75-.78.75-.44,0-.78-.34-.77-.78,0-.45.33-.77.79-.76Z"/><path class="cls-2" d="m23.34,24.74c0-.07,0-.12,0-.18,0,.06,0,.13,0,.19h0Z"/><path class="cls-3" d="m20.06,21.94c1.62-.14,2.47-.09,3.04.96,0,0,.2.28.23,1.53,0,0,0,0,0,.01,0,.04,0,.08,0,.12,0,.06,0,.11,0,.18h0c0,.68.01,1.36,0,2.03,0,.09-.11.23-.2.27-1.1.47-1.66,1.28-1.65,2.49,0,1.24,0,2.48,0,3.72,0,.53.19.71.73.72.16,0,.32,0,.47,0,.34,0,.56-.18.61-.51.05-.34-.15-.55-.46-.65-.05-.02-.11-.03-.18-.05,0-1.15-.02-2.29,0-3.43.01-.71.61-1.23,1.33-1.21.68.01,1.22.53,1.23,1.23.02,1.13,0,2.26,0,3.4-.12.05-.23.08-.33.14-.24.14-.36.37-.26.61.08.18.27.39.45.44.27.07.58.04.87.01.31-.03.47-.27.48-.56.01-1.4.05-2.8-.02-4.19-.06-1.13-.74-1.86-1.84-2.22v-2.35s.04-.62-.19-1.81c-.39-1.15-1.18-1.91-2.44-2.07-.93-.11-1.89-.05-2.84-.07-.21,0-.43,0-.66,0v.66l1.63.58Z"/><path class="cls-1" d="m28.74,29.75c-.03-.84-.07-1.68-.2-2.5-.3-1.86-1.27-3.17-3.18-3.65-.2-.05-.39-.14-.59-.18-.21-.04-.28-.15-.33-.36-.02-.08-.05-.16-.08-.23.23,1.19.19,1.81.19,1.81,1.68.3,2.55,1.05,2.82,2.86.15,1,.17,2.03.19,3.05.03,1.26,0,2.52,0,3.81h-8.16c.29-.78.57-1.54.85-2.29.22-.6.44-1.2.68-1.8.13-.32.14-.62-.03-.94-.22-.43-.39-.88-.59-1.33.39-.28.78-.53,1.13-.83.16-.14.3-.4.3-.61.03-.92.01-1.84.01-2.83.52.16.98.3,1.43.45.06.02.12.15.13.24-.03-1.25-.23-1.53-.23-1.53-1.05-.33-2.03-.63-3.08-.96.01,0,.03,0,.04,0l-1.63-.58v-.66h0c0-.06,0-.12,0-.17v-.02h0c0-.1,0-.2,0-.29-.05-.36.08-.59.37-.83.92-.76,1.55-1.73,1.94-2.85.11-.33.19-.67.28-1,.34-.02.68,0,.99-.06,1.05-.24,1.74-.88,1.97-1.95.22-1.04-.14-1.88-.96-2.54-.09-.07-.2-.21-.19-.3.11-.94.24-1.88.37-2.81.15-1,.22-2-.08-2.99-.79-2.63-3.59-4.71-6.44-4.75-1.52-.02-3.04,0-4.55,0-.39,0-.78.02-1.16.08-1.41.22-2.45.93-2.98,2.3-.07.17-.2.33-.34.45-1.43,1.28-2.14,2.87-1.98,4.79.08.94.28,1.87.46,2.79.05.24-.02.34-.19.47-.8.62-1.14,1.45-.96,2.44.19,1.05.84,1.74,1.88,1.99.36.09.74.08,1.11.11.52,1.98.92,2.62,2.46,4.05.06.06.11.16.12.24.02.26,0,.53,0,.85v.61l-1.59.63s.02,0,.02,0c-1.08.34-2.07.64-3.1.96,0,0-.2.68-.25,1.49.04-.16.14-.23.34-.28.39-.09.76-.23,1.21-.37,0,.18,0,.33,0,.48,0,.75.02,1.51,0,2.26,0,.34.12.57.4.76.35.24.69.5,1.05.76-.2.46-.39.92-.6,1.36-.14.3-.14.57-.02.87.48,1.24.94,2.49,1.41,3.74.05.12.09.25.14.4H1.29c.08-2.18.14-4.31.24-6.45.02-.39.13-.79.25-1.17.39-1.31,1.36-1.9,2.66-2.13l.34-2.15s-.02.05-.03.07c-.26.73-.68.98-1.33,1.12-.09.02-.19.05-.28.08-.96.34-1.68.94-2.16,1.85-.45.85-.65,1.78-.69,2.73-.08,2.17-.12,4.35-.17,6.52-.01.51.19.71.7.71,9.11,0,18.22,0,27.33,0,.51,0,.71-.2.7-.7-.03-1.7-.06-3.4-.12-5.1Zm-6.11-17.47c.31.47.32.96.02,1.44-.35.56-.89.69-1.53.61v-2.62c.63-.08,1.16.03,1.52.57Zm-14.77,2.05c-.67.08-1.21-.06-1.56-.65-.29-.48-.26-.98.06-1.44.36-.51.89-.62,1.5-.53v2.62Zm.02-4.28c0,.13,0,.26,0,.4-.41.1-.61.04-.66-.39-.1-.92-.35-1.84-.39-2.76-.07-1.44.56-2.61,1.68-3.5.27-.22.45-.45.55-.78.34-1.06,1.14-1.57,2.18-1.63,1.38-.08,2.76-.05,4.15-.08,1.16-.03,2.31.03,3.38.52,1.59.73,2.82,1.84,3.22,3.6.15.64.1,1.35.04,2.02-.08.94-.24,1.87-.36,2.81,0,.07-.04.14-.06.22h-.52c-.04-.27-.08-.53-.13-.79-.24-1.31-.97-1.91-2.3-1.97-.83-.04-1.68-.05-2.49-.2-1.24-.22-2.36-.79-3.47-1.36-.36-.19-.74-.37-1.14-.47-1.13-.27-2.03.17-2.69,1.07-.72.97-.97,2.1-1,3.29Zm1.22,4.98c-.01-.1-.02-.19-.02-.29,0-1.66-.02-3.33,0-4.99,0-.75.22-1.46.61-2.1.52-.85,1.21-1.03,2.12-.61.93.43,1.86.88,2.81,1.27,1.09.44,2.23.64,3.41.6.27,0,.53.01.8.04.61.06.84.27.95.86.05.3.08.6.09.9.01.63,0,1.26,0,1.89.01,0,.02,0,.04,0-.04.92,0,1.85-.13,2.76-.29,2.22-2.28,4.07-4.5,4.4-2.86.43-5.78-1.52-6.2-4.73Zm8.13,6.54c0,.7.02.73.68.97.04.02.08.04.14.07-.12.81-.23,1.61-.37,2.41-.01.08-.12.17-.2.2-1.27.39-2.57.52-3.88.4-.66-.06-1.31-.22-1.97-.34-.24-.04-.35-.15-.38-.43-.08-.74-.22-1.48-.33-2.21.03-.03.04-.05.06-.06q.75-.29.75-1.1c0-.33,0-.65,0-1.05,1.84.76,3.64.77,5.5,0,0,.42,0,.78,0,1.15Zm-6.58,12.32c-.47-1.26-.95-2.51-1.41-3.77-.06-.17-.05-.41.02-.58.18-.47.41-.93.61-1.4.17-.4.11-.62-.24-.88-.35-.26-.72-.5-1.05-.78-.11-.09-.21-.27-.21-.4-.02-.81,0-1.63-.02-2.44,0-.21.06-.3.27-.35.37-.09.73-.22,1.15-.35.57,3.82,1.14,7.61,1.71,11.42q-.63.07-.83-.47Zm5.63.47h-3.6c-.39-2.62-.79-5.23-1.19-7.9,2.01.48,3.97.48,5.97,0-.4,2.65-.79,5.26-1.19,7.9Zm1.2,0c.57-3.8,1.14-7.6,1.72-11.43.43.13.83.24,1.21.38.09.03.19.18.19.28.01.85.01,1.7,0,2.55,0,.11-.09.24-.18.31-.33.26-.69.5-1.03.75-.43.31-.48.51-.27.99.19.43.37.87.58,1.29.12.24.11.45.02.69-.47,1.23-.93,2.47-1.39,3.7q-.2.53-.84.48Z"/><path class="cls-2" d="m18.43,20.52s0-.01,0-.02h0v.02Z"/></g></svg>