<?xml version="1.0" encoding="UTF-8"?><svg id="Layer_2" xmlns="http://www.w3.org/2000/svg" viewBox="0 0 35.41 35.39"><defs><style>.cls-1{fill:#4da234;}.cls-1,.cls-2{stroke:#eeeeed;stroke-miterlimit:10;stroke-width:.25px;}.cls-2{fill:#025780;}</style></defs><g id="Capa_1"><path class="cls-1" d="m3.53,20.5h7.08c-.11-.12-.19-.21-.28-.3-1.73-1.73-3.46-3.45-5.19-5.19-.94-.94-.66-2.45.53-2.92.76-.3,1.44-.14,2.01.44,1.82,1.82,3.65,3.64,5.46,5.47.19.19.38.27.65.26.53-.02,1.06,0,1.62,0V2.37c-.21,0-.42,0-.63,0-1.06,0-2.13.01-3.19-.01-.21,0-.46-.11-.62-.25-.37-.31-.7-.67-1.05-1.02.29-.27.55-.52.87-.81.23.24.49.52.75.78.08.08.19.17.29.17,1.19.01,2.38,0,3.6,0V.12h1.14v1.11c.91,0,1.78-.05,2.65.02.77.06,1.38-.12,1.83-.76.06-.08.15-.14.22-.21.27.27.53.52.82.81-.49.47-.97.92-1.55,1.47,0,.17-.01.52,0,.85,0,.09.09.21.17.26.66.37.98.92.96,1.68-.02.7,0,1.39,0,2.09,0,.69-.31,1.21-.91,1.52-.2.1-.24.22-.23.42.01.29,0,.59,0,.9h-1.13c0-.32.02-.64,0-.95-.01-.12-.1-.28-.2-.34-.61-.36-.93-.88-.92-1.6,0-.71,0-1.42,0-2.13,0-.7.3-1.23.92-1.56.17-.09.23-.19.22-.38-.01-.3,0-.61,0-.94h-2.82v15.83h15.3c0-.57,0-1.15,0-1.72,0-.37,0-.73,0-1.1,0-.96.76-1.69,1.72-1.69.94,0,1.68.74,1.68,1.69,0,4.12,0,8.25,0,12.37,0,.49-.19.68-.68.69-.9,0-1.8,0-2.69,0-.11,0-.27.05-.33.13-.38.6-.74,1.2-1.1,1.81.86.99,1.11,2.08.54,3.26-.5,1.05-1.38,1.6-2.55,1.6-1.17,0-2.04-.55-2.55-1.6-.51-1.05-.37-2.06.32-3,.08-.11.11-.25.16-.38-.13-.04-.27-.12-.4-.12-5.53,0-11.06,0-16.59,0-.14,0-.28.09-.43.14.06.13.1.27.18.38.73.96.8,2.25.17,3.25-.63.99-1.82,1.52-2.93,1.29-1.23-.26-2.13-1.18-2.3-2.39-.12-.92.15-1.73.82-2.42-.37-.62-.73-1.23-1.12-1.84-.05-.08-.22-.11-.34-.11-.89,0-1.77,0-2.66,0-.51,0-.7-.19-.7-.71,0-5.23,0-10.47,0-15.7,0-1,.73-1.74,1.71-1.74.97,0,1.69.75,1.69,1.75,0,2.68,0,5.36,0,8.05,0,.13,0,.25,0,.4Zm28.92,4.54c0-.85,0-1.66,0-2.47,0-.77-.15-.92-.9-.92-9.23,0-18.45,0-27.68,0-.12,0-.24,0-.35,0-.31.04-.53.21-.54.51-.02.95,0,1.9,0,2.87h29.48ZM1.28,27.29h32.85v-1.09H1.28v1.09Zm30.59-7.92c-.17,0-.31,0-.45,0-5.99,0-11.98,0-17.97,0-.37,0-.64-.1-.9-.37-1.84-1.86-3.7-3.71-5.56-5.57-.08-.08-.16-.21-.26-.23-.22-.05-.47-.11-.66-.03-.16.07-.32.32-.32.49,0,.21.15.45.3.6,1.99,2.01,3.99,4,5.98,6,.17.17.34.24.58.24,6.28,0,12.57,0,18.85,0,.13,0,.25,0,.4,0v-1.14ZM1.83,25.04c0-.96,0-1.89,0-2.82,0-.41.14-.75.37-1.08.1-.15.19-.35.19-.53.01-2.12,0-4.25,0-6.37,0-.67,0-1.35,0-2.02,0-.5-.22-.78-.58-.78-.36,0-.56.29-.56.79,0,.01,0,.02,0,.04,0,4.13,0,8.26,0,12.39v.38h.57Zm32.31,0c0-.07.02-.12.02-.16,0-3.11,0-6.23,0-9.34,0-.41-.24-.68-.57-.68-.33,0-.57.27-.57.68,0,1.73,0,3.47,0,5.2,0,.1.02.22.08.29.4.43.5.93.49,1.5-.02.83,0,1.67,0,2.52h.55Zm-24.32,3.97h15.79c-.12-.4-.32-.56-.76-.56-4.76.02-9.52.02-14.28,0-.43,0-.65.15-.76.56Zm-2.89,1.72c-.91,0-1.69.79-1.69,1.7,0,.91.77,1.69,1.69,1.7.92,0,1.72-.8,1.71-1.72-.01-.92-.8-1.69-1.71-1.68Zm19.86,1.68c-.01.91.76,1.7,1.68,1.72.91.02,1.7-.75,1.72-1.67.02-.92-.76-1.73-1.69-1.73-.91,0-1.69.77-1.71,1.68Zm-7.37-26.07c0,.35,0,.71,0,1.06.01.38.25.64.57.64.31,0,.55-.26.56-.62.01-.72.01-1.44,0-2.16,0-.36-.25-.61-.55-.62-.32,0-.57.26-.58.63,0,.35,0,.71,0,1.06Zm-10.67,22.14h-3.62c.25.42.47.8.71,1.17.04.06.19.09.27.07.56-.17,1.11-.17,1.67,0,.08.02.23,0,.27-.07.24-.37.46-.75.71-1.17Zm17.93,0c.25.42.46.8.7,1.16.04.06.21.1.29.08.55-.16,1.09-.16,1.63,0,.08.02.24.01.27-.04.25-.38.47-.77.73-1.19h-3.63Z"/><path class="cls-2" d="m19.43,11.45h1.09v1.09h-1.09v-1.09Z"/><path class="cls-2" d="m19.43,13.72h1.09v1.09h-1.09v-1.09Z"/><path class="cls-2" d="m19.42,17.09v-1.09h1.09v1.09h-1.09Z"/><path class="cls-2" d="m4.11,23.89v-1.09h4.49v1.09h-4.49Z"/><path class="cls-2" d="m10.88,23.91h-1.08v-1.1h1.08v1.1Z"/><path class="cls-2" d="m8.06,32.44c0,.64-.51,1.12-1.16,1.12-.63,0-1.12-.52-1.11-1.17.01-.62.51-1.1,1.14-1.1.64,0,1.13.51,1.12,1.15Z"/><path class="cls-2" d="m27.35,32.4c0-.64.51-1.12,1.16-1.11.62,0,1.11.51,1.11,1.13,0,.64-.5,1.14-1.14,1.13-.64,0-1.13-.51-1.12-1.15Z"/></g></svg>