<?xml version="1.0" encoding="UTF-8"?><svg id="Layer_2" xmlns="http://www.w3.org/2000/svg" viewBox="0 0 33.13 31.09"><defs><style>.cls-1{stroke:#4da234;}.cls-1,.cls-2{fill:none;stroke-linecap:round;stroke-linejoin:round;stroke-width:1.5px;}.cls-2{stroke:#025780;}</style></defs><g id="Capa_1"><path class="cls-2" d="m12.28.75c2,0,3.62,1.62,3.62,3.62s-1.62,3.62-3.62,3.62c-2,0-3.62-1.62-3.62-3.62s1.62-3.62,3.62-3.62h0Z"/><path class="cls-2" d="m28.1,18.77c2,0,3.62,1.62,3.62,3.62s-1.62,3.62-3.62,3.62c-2,0-3.62-1.62-3.62-3.62s1.62-3.62,3.62-3.62h0Z"/><path class="cls-1" d="m1.81,21.08l18.12-1.42c1.05-.08,1.94.69,2.22,1.68l2.64,6.21h6.19c.77,0,1.4.63,1.4,1.4s-.63,1.4-1.4,1.4h-6.94c-.98,0-1.35-.58-1.57-1.1l-1.54-3.62H2.17c-.78,0-1.42-.64-1.42-1.42v-2.06c0-.58.48-1.02,1.06-1.06h0Z"/><path class="cls-1" d="m5.22,20.29l1.97-9.57c.16-.78.65-1.45,1.45-1.45h6.24c.65,0,1.65.57,1.89,1.19l2.46,6.49c.27.72-.09,1.53-.81,1.8h0c-.72.27-1.53-.09-1.8-.81l-1.57-4.15-1.9,5.94"/><line class="cls-2" x1="1.47" y1="28.33" x2="19.45" y2="28.33"/></g></svg>