<?xml version="1.0" encoding="UTF-8"?><svg id="Layer_2" xmlns="http://www.w3.org/2000/svg" viewBox="0 0 25.46 30.18"><defs><style>.cls-1{fill:#4da234;}.cls-2{fill:#025780;}</style></defs><g id="Capa_1"><path class="cls-1" d="m14.62,16.5c-.08,0-.15-.02-.22-.06-.32-.17-7.79-4.2-7.79-9.38v-3.3c0-1.3,1.06-2.36,2.36-2.36v.94c-.78,0-1.41.63-1.41,1.41v3.3c0,4.15,5.85,7.72,7.07,8.42,1.22-.7,7.07-4.27,7.07-8.42v-3.3c0-.78-.63-1.41-1.41-1.41v-.94c1.3,0,2.36,1.06,2.36,2.36v3.3c0,5.17-7.48,9.21-7.79,9.38-.07.04-.15.06-.22.06Z"/><path class="cls-2" d="m10.37,3.77c-1.04,0-1.89-.85-1.89-1.89s.85-1.89,1.89-1.89,1.89.85,1.89,1.89-.85,1.89-1.89,1.89Zm0-2.83c-.52,0-.94.42-.94.94s.42.94.94.94.94-.42.94-.94-.42-.94-.94-.94Z"/><path class="cls-2" d="m18.86,3.77c-1.04,0-1.89-.85-1.89-1.89s.85-1.89,1.89-1.89,1.89.85,1.89,1.89-.85,1.89-1.89,1.89Zm0-2.83c-.52,0-.94.42-.94.94s.42.94.94.94.94-.42.94-.94-.42-.94-.94-.94Z"/><rect class="cls-1" x="14.15" y="16.03" width=".94" height="3.3"/><path class="cls-1" d="m19.81,30.18c-3.12,0-5.66-2.54-5.66-5.66v-3.77h.94v3.77c0,2.6,2.12,4.72,4.72,4.72s4.72-2.12,4.72-4.72-2.12-4.72-4.72-4.72H6.13v-.94h13.67c3.12,0,5.66,2.54,5.66,5.66s-2.54,5.66-5.66,5.66Z"/><path class="cls-2" d="m14.62,12.73c-4.27,0-6.32-1.44-6.41-1.5l.55-.77s1.92,1.33,5.85,1.33,5.84-1.31,5.86-1.33l.55.77c-.09.06-2.14,1.5-6.41,1.5Z"/><path class="cls-2" d="m19.81,28.29c-2.08,0-3.77-1.69-3.77-3.77s1.69-3.77,3.77-3.77v.94c-1.56,0-2.83,1.27-2.83,2.83s1.27,2.83,2.83,2.83,2.83-1.27,2.83-2.83h.94c0,2.08-1.69,3.77-3.77,3.77Z"/><path class="cls-2" d="m3.3,22.63c-1.82,0-3.3-1.48-3.3-3.3s1.48-3.3,3.3-3.3,3.3,1.48,3.3,3.3-1.48,3.3-3.3,3.3Zm0-5.66c-1.3,0-2.36,1.06-2.36,2.36s1.06,2.36,2.36,2.36,2.36-1.06,2.36-2.36-1.06-2.36-2.36-2.36Z"/><circle class="cls-2" cx="3.3" cy="19.33" r=".94"/></g></svg>