<?xml version="1.0" encoding="UTF-8"?><svg id="Layer_2" xmlns="http://www.w3.org/2000/svg" viewBox="0 0 20.38 34.38"><defs><style>.cls-1{fill:#eeeeed;}.cls-2{fill:#4da234;}.cls-3{fill:#025780;}</style></defs><g id="Capa_1"><path class="cls-3" d="m15.05,16.28h-2.41c-.14,0-.28-.07-.37-.19-.1-.14-2.51-3.46-2.95-4.49-.02-.04-.03-.09-.03-.13l-.91-8.29c-.01-.13.03-.26.11-.35.09-.1.21-.15.34-.15h10.03c.13,0,.25.05.34.15.09.1.13.22.11.35l-.91,8.29s-.02.09-.03.13c-.44,1.02-2.85,4.35-2.95,4.49-.09.12-.22.19-.37.19Zm-2.18-.9h1.95c.74-1.03,2.32-3.28,2.69-4.07l.84-7.71h-9.02l.84,7.71c.37.79,1.95,3.04,2.69,4.07Z"/><rect class="cls-3" x="9.22" y="7" width="9.26" height=".91"/><path class="cls-3" d="m15.07,19.04h-2.43c-.25,0-.45-.2-.45-.45v-2.76c0-.25.2-.45.45-.45h2.43c.25,0,.45.2.45.45v2.76c0,.25-.2.45-.45.45Zm-1.98-.91h1.53v-1.86h-1.53v1.86Z"/><path class="cls-3" d="m14.72,34.38h-1.72c-.25,0-.45-.2-.45-.45v-1.8c0-.25.2-.45.45-.45h1.72c.25,0,.45.2.45.45v1.8c0,.25-.2.45-.45.45Zm-1.26-.9h.81v-.9h-.81v.9Z"/><rect class="cls-3" x="13.4" y="18.59" width=".9" height="13.54"/><path class="cls-2" d="m12.02,3.59H1.06c-.58,0-1.06-.47-1.06-1.06v-1.48C0,.47.47,0,1.06,0h10.96c.58,0,1.06.47,1.06,1.06v1.48c0,.58-.47,1.06-1.06,1.06ZM1.06.91c-.08,0-.15.07-.15.15v1.48c0,.08.07.15.15.15h10.96c.08,0,.15-.07.15-.15v-1.48c0-.08-.07-.15-.15-.15H1.06Z"/><path class="cls-3" d="m19.33,3.59h-7.31c-.25,0-.45-.2-.45-.45s.2-.45.45-.45c.08,0,.15-.07.15-.15v-1.48c0-.08-.07-.15-.15-.15-.25,0-.45-.2-.45-.45s.2-.45.45-.45h7.31c.58,0,1.06.47,1.06,1.06v1.48c0,.58-.47,1.06-1.06,1.06Zm-6.27-.9h6.27c.08,0,.15-.07.15-.15v-1.48c0-.08-.07-.15-.15-.15h-6.27s.01.1.01.15v1.48c0,.05,0,.1-.01.15Z"/><path class="cls-2" d="m7.74,16.28h-2.41c-.14,0-.28-.07-.37-.19-.1-.14-2.51-3.46-2.95-4.49-.02-.04-.03-.09-.03-.13L1.07,3.19c-.01-.13.03-.26.11-.35.09-.1.21-.15.34-.15h10.03c.13,0,.25.05.34.15.09.1.13.22.11.35l-.91,8.29s-.02.09-.03.13c-.44,1.02-2.85,4.35-2.95,4.49-.09.12-.22.19-.37.19Zm-2.18-.9h1.95c.74-1.03,2.32-3.28,2.69-4.07l.84-7.71H2.02l.84,7.71c.37.79,1.95,3.04,2.69,4.07Z"/><path class="cls-2" d="m7.76,19.04h-2.43c-.25,0-.45-.2-.45-.45v-2.76c0-.25.2-.45.45-.45h2.43c.25,0,.45.2.45.45v2.76c0,.25-.2.45-.45.45Zm-1.98-.91h1.53v-1.86h-1.53v1.86Z"/><path class="cls-2" d="m7.41,34.38h-1.72c-.25,0-.45-.2-.45-.45v-1.8c0-.25.2-.45.45-.45h1.72c.25,0,.45.2.45.45v1.8c0,.25-.2.45-.45.45Zm-1.26-.9h.81v-.9h-.81v.9Z"/><rect class="cls-2" x="6.08" y="18.59" width=".9" height="13.54"/><path class="cls-1" d="m10.21,11.3l.84-7.71H2.02l.84,7.71c.37.79,1.95,3.04,2.69,4.07h1.95c.74-1.03,2.32-3.28,2.69-4.07"/><rect class="cls-2" x="1.91" y="7" width="9.26" height=".91"/></g></svg>