<?xml version="1.0" encoding="UTF-8"?><svg id="Layer_2" xmlns="http://www.w3.org/2000/svg" viewBox="0 0 34.1 34.09"><defs><style>.cls-1,.cls-2{fill:#4da234;}.cls-2{stroke:#025780;stroke-miterlimit:10;}</style></defs><g id="Capa_1"><path class="cls-1" d="m0,24.69c.13-.55.22-1.11.41-1.63.68-1.88,2.09-2.86,4.04-3.08.55-.06,1.12.03,1.68.04.15,0,.33,0,.44-.08,1.16-.72,2.44-.8,3.75-.74,1.15.06,2.3.2,3.45.14,1.98-.1,3.73-.78,4.92-2.48.75-1.06,1.06-2.28,1.14-3.56.06-1.08,0-2.18.34-3.23.15-.47.35-.93.51-1.4.04-.13.06-.31,0-.42-.48-.93-.78-1.91-.79-2.96-.02-1.05-.04-2.11,0-3.16.04-1.04.68-1.78,1.67-2.08.05-.02.09-.05.14-.07.29,0,.58,0,.87,0,.04.02.08.05.12.06,1.11.32,1.74,1.14,1.75,2.29,0,.89,0,1.77,0,2.66,0,.13.02.25.03.37.06.01.09.02.11.02.06-.01.13-.03.19-.05,2.84-.68,5.22.07,7.06,2.35,1.55,1.91,2.16,4.16,2.25,6.57.06,1.51-.07,3.01-.33,4.5-.41,2.37-1.15,4.61-2.45,6.65-.13.2-.11.33.01.52.78,1.17,1.56,2.34,2.3,3.54.63,1.01.65,2.08.06,3.12-.57,1.01-1.47,1.49-2.63,1.49-2.54,0-5.08,0-7.62,0-1.35,0-2.46-.83-2.85-2.12-.03-.09-.06-.18-.09-.26-.35.02-.67.05-.99.07-2.82.18-5.58-.13-8.19-1.26-2.64-1.15-4.73-2.89-5.87-5.62-.05-.12-.15-.23-.25-.3-.27-.18-.49-.1-.56.23-.05.24-.08.48-.08.72,0,2.14,0,4.28-.02,6.42-.01.95-.66,1.73-1.56,2.02-.88.28-1.85.02-2.42-.72C.31,32.95.18,32.56,0,32.21c0-2.51,0-5.01,0-7.52Zm30.49-.03c.38-.8.75-1.51,1.05-2.24.79-1.9,1.17-3.89,1.33-5.93.13-1.61.11-3.21-.33-4.78-.48-1.76-1.3-3.32-2.81-4.43-1.45-1.07-3.05-1.24-4.78-.78.06.09.1.17.15.22.38.35.76.71,1.15,1.05.25.22.32.55.15.8-.17.26-.51.33-.79.15-.17-.1-.33-.22-.48-.35-1.19-.99-1.96-2.17-1.85-3.81.05-.73.02-1.46,0-2.2,0-.71-.5-1.22-1.14-1.22-.64,0-1.11.52-1.11,1.23,0,.91,0,1.82,0,2.73,0,.72.14,1.41.42,2.07.58,1.39,1.55,2.46,2.77,3.32.42.3.52.6.29.91-.22.31-.56.35-.96.02-.61-.5-1.18-1.04-1.76-1.57-.09-.08-.16-.17-.26-.27-.33.89-.48,1.75-.51,2.64-.03.76-.06,1.53-.17,2.28-.14.98-.54,1.89-1.03,2.76.08.04.13.07.19.09,1.59.51,3.17.45,4.71-.17.95-.38,1.69-1,2-2.03.09-.32.43-.46.72-.36.29.1.48.41.35.73-.18.44-.35.91-.65,1.26-.42.5-.95.9-1.41,1.33.8.43,1.35,1.14,1.51,2.13.06.38-.1.66-.44.73-.35.07-.64-.14-.69-.54-.08-.7-.5-1.12-1.1-1.38-.63-.28-1.31-.35-1.99-.28-1.29.14-2.54.02-3.75-.46-.09-.04-.26,0-.33.06-1,.97-2.19,1.57-3.52,1.9-.22.05-.44.09-.61.13.17.44.38.83.46,1.24.08.41.3.65.64.77.34.13.7.21,1.05.26.42.06.69.29.66.64-.03.35-.33.58-.75.51-.57-.1-1.13-.25-1.63-.36-.34.57-.68,1.17-1.06,1.75-.09.14-.25.26-.41.31-.23.08-.46,0-.61-.22-.17-.24-.12-.47.04-.71.29-.47.61-.93.81-1.43.34-.84.22-1.65-.41-2.35-.17-.19-.36-.3-.63-.28-.27.02-.55-.02-.83-.03-1.01-.05-2.01-.13-3.02-.14-.67,0-1.32.16-1.89.53-.35.23-.73.3-1.14.27-.43-.04-.86-.1-1.29-.07-1.66.13-2.85.89-3.33,2.48-.19.61-.29,1.26-.3,1.89-.04,2.06-.02,4.13-.01,6.19,0,.17.03.36.09.52.17.5.72.82,1.21.73.58-.11.96-.54.96-1.14,0-2.09,0-4.17.01-6.26,0-.44.09-.88.2-1.3.14-.51.53-.78,1.04-.85.8-.12,1.53.27,1.83,1.02.76,1.89,2.09,3.27,3.81,4.3,3.16,1.88,6.61,2.18,10.12,1.85.2-.42.34-.82.56-1.17,1.27-1.98,2.55-3.95,3.84-5.9,1.19-1.79,3.69-1.78,4.9,0,.24.36.47.72.77,1.18Zm-3.27,8.28c1.24,0,2.48,0,3.72,0,.25,0,.51-.03.75-.11,1.16-.38,1.59-1.74.89-2.83-1.25-1.94-2.52-3.88-3.79-5.81-.79-1.2-2.28-1.19-3.07.01-1.26,1.92-2.5,3.84-3.76,5.76-.43.66-.51,1.34-.13,2.04.37.7,1,.96,1.77.96,1.21,0,2.42,0,3.62,0Z"/><path class="cls-2" d="m26.69,27.26c0-.54,0-1.09,0-1.63,0-.38.24-.65.57-.65.33,0,.57.26.57.64,0,1.09,0,2.17,0,3.26,0,.41-.24.67-.58.66-.33-.01-.55-.27-.55-.66,0-.54,0-1.09,0-1.63Z"/><path class="cls-2" d="m27.82,31.23c0,.32-.23.57-.55.58-.32,0-.59-.26-.59-.58,0-.32.25-.56.57-.56.33,0,.56.23.56.56Z"/></g></svg>