<?xml version="1.0" encoding="UTF-8"?><svg id="Layer_2" xmlns="http://www.w3.org/2000/svg" viewBox="0 0 27.21 31.34"><defs><style>.cls-1{fill:#4da234;}.cls-2{fill:#025780;}</style></defs><g id="Capa_1"><path class="cls-2" d="m23.61,28.82H3.61c-.16,0-.31-.08-.39-.22l-.44-.71c-.1-.16-.09-.36.01-.51l5.24-7.5c.09-.12.23-.2.38-.2h10.39c.15,0,.29.07.38.2l5.24,7.5c.1.15.11.35.01.5l-.44.71c-.08.14-.23.22-.39.22Zm-19.74-.92h19.49l.14-.23-4.93-7.06h-9.91l-4.93,7.05.14.23Z"/><path class="cls-1" d="m24.07,31.34H3.15c-.68,0-1.48-.45-1.84-1.02l-1.06-1.71c-.37-.6-.34-1.52.06-2.09l9.16-13.12c.24-.35.46-1.03.46-1.46V3.02h-.46c-.83,0-1.51-.68-1.51-1.51s.68-1.51,1.51-1.51h8.25c.83,0,1.51.68,1.51,1.51s-.68,1.51-1.51,1.51h-.46v8.93c0,.43.21,1.11.46,1.46l9.16,13.12c.4.57.43,1.48.07,2.08l-1.06,1.71c-.35.57-1.15,1.02-1.83,1.02ZM9.48.92c-.33,0-.59.27-.59.59s.27.59.59.59h.92c.25,0,.46.21.46.46v9.39c0,.61-.27,1.49-.62,1.98L1.07,27.05c-.19.28-.21.79-.03,1.08l1.05,1.7c.19.31.69.59,1.05.59h20.92c.36,0,.86-.28,1.05-.58l1.06-1.71c.17-.29.16-.8-.04-1.08l-9.16-13.12c-.35-.5-.62-1.37-.62-1.98V2.56c0-.25.21-.46.46-.46h.92c.33,0,.59-.27.59-.59s-.27-.59-.59-.59h-8.25Z"/><path class="cls-2" d="m10.11,25.2c-.84,0-1.52-.68-1.52-1.52s.68-1.52,1.52-1.52,1.52.68,1.52,1.52-.68,1.52-1.52,1.52Zm0-2.12c-.33,0-.6.27-.6.6s.27.6.6.6.6-.27.6-.6-.27-.6-.6-.6Z"/><path class="cls-2" d="m13.81,18.25c-.84,0-1.52-.68-1.52-1.52s.68-1.52,1.52-1.52,1.52.68,1.52,1.52-.68,1.52-1.52,1.52Zm0-2.12c-.33,0-.6.27-.6.6s.27.6.6.6.6-.27.6-.6-.27-.6-.6-.6Z"/><path class="cls-2" d="m15.56,27c-1.33,0-2.42-1.08-2.42-2.42s1.08-2.42,2.42-2.42,2.42,1.08,2.42,2.42-1.08,2.42-2.42,2.42Zm0-3.91c-.83,0-1.5.67-1.5,1.5s.67,1.5,1.5,1.5,1.5-.67,1.5-1.5-.67-1.5-1.5-1.5Z"/></g></svg>