<?xml version="1.0" encoding="UTF-8"?><svg id="Layer_2" xmlns="http://www.w3.org/2000/svg" viewBox="0 0 29.68 29.68"><defs><style>.cls-1{fill:#4da234;}.cls-2{fill:#025780;}</style></defs><g id="Capa_1"><rect class="cls-1" x="7.42" y="26.9" width="1.85" height=".93"/><rect class="cls-1" x="5.1" y="1.85" width=".93" height=".93"/><rect class="cls-1" x="6.96" y="1.85" width="4.64" height=".93"/><rect class="cls-1" x=".46" y="3.71" width="15.77" height=".93"/><rect class="cls-1" x=".46" y="25.04" width="15.77" height=".93"/><path class="cls-1" d="m14.84,29.68H1.85c-1.02,0-1.85-.83-1.85-1.85V1.85C0,.83.83,0,1.85,0h12.98c1.02,0,1.85.83,1.85,1.85v19.48h-.93V1.85c0-.51-.42-.93-.93-.93H1.85c-.51,0-.93.42-.93.93v25.97c0,.51.42.93.93.93h12.98c.51,0,.93-.42.93-.93v-3.71h.93v3.71c0,1.02-.83,1.85-1.85,1.85Z"/><path class="cls-2" d="m23.65,14.84c-.09,0-.18-.03-.26-.08-.24-.16-5.77-3.9-5.77-8.27v-2.78c0-1.28,1.04-2.32,2.32-2.32v.93c-.77,0-1.39.62-1.39,1.39v2.78c0,3.38,4.03,6.54,5.1,7.32,1.07-.78,5.1-3.94,5.1-7.32v-2.78c0-.77-.62-1.39-1.39-1.39v-.93c1.28,0,2.32,1.04,2.32,2.32v2.78c0,4.37-5.54,8.11-5.77,8.27-.08.05-.17.08-.26.08Z"/><path class="cls-2" d="m21.33,3.71h-.93c-.51,0-.93-.42-.93-.93V.93c0-.51.42-.93.93-.93h.93c.51,0,.93.42.93.93v1.85c0,.51-.42.93-.93.93Zm-.93-2.78v1.85h.93V.93h-.93Z"/><path class="cls-2" d="m26.9,3.71h-.93c-.51,0-.93-.42-.93-.93V.93c0-.51.42-.93.93-.93h.93c.51,0,.93.42.93.93v1.85c0,.51-.42.93-.93.93Zm-.93-2.78v1.85h.93V.93h-.93Z"/><path class="cls-2" d="m23.65,11.13c-3.32,0-6.03-2.08-6.03-4.64h.93c0,2.05,2.29,3.71,5.1,3.71s5.1-1.66,5.1-3.71h.93c0,2.56-2.7,4.64-6.03,4.64Z"/><path class="cls-2" d="m8.35,12.98c-1.79,0-3.25-1.46-3.25-3.25s1.46-3.25,3.25-3.25,3.25,1.46,3.25,3.25-1.46,3.25-3.25,3.25Zm0-5.56c-1.28,0-2.32,1.04-2.32,2.32s1.04,2.32,2.32,2.32,2.32-1.04,2.32-2.32-1.04-2.32-2.32-2.32Z"/><circle class="cls-2" cx="8.35" cy="9.74" r=".93"/><path class="cls-2" d="m22.26,28.29c-1.02,0-1.85-.83-1.85-1.85v-7.88c0-.51-.42-.93-.93-.93s-.93.42-.93.93v2.78c0,1.02-.83,1.85-1.85,1.85H4.64c-1.02,0-1.85-.83-1.85-1.85s.83-1.85,1.85-1.85h7.42c.51,0,.93-.42.93-.93s-.42-.93-.93-.93h-2.32c-1.02,0-1.85-.83-1.85-1.85v-1.85h.93v1.85c0,.51.42.93.93.93h2.32c1.02,0,1.85.83,1.85,1.85s-.83,1.85-1.85,1.85h-7.42c-.51,0-.93.42-.93.93s.42.93.93.93h12.06c.51,0,.93-.42.93-.93v-2.78c0-1.02.83-1.85,1.85-1.85s1.85.83,1.85,1.85v7.88c0,.51.42.93.93.93s.93-.42.93-.93v-12.06h.93v12.06c0,1.02-.83,1.85-1.85,1.85Z"/></g></svg>