<?xml version="1.0" encoding="UTF-8"?><svg id="Layer_2" xmlns="http://www.w3.org/2000/svg" viewBox="0 0 31.24 34.3"><defs><style>.cls-1{fill:#fff;}.cls-2{fill:#025780;}</style></defs><g id="Capa_1"><path class="cls-2" d="m20.09,34.3c-.49-.14-.99-.24-1.46-.43-1.39-.56-2.39-1.57-3.11-2.86-.16-.28-.33-.35-.63-.35-3.88,0-7.77,0-11.65,0-1.67,0-2.9-1.01-3.2-2.6-.03-.15-.03-.31-.03-.47,0-2.59,0-5.18,0-7.77,0-.49.25-.79.66-.79.43,0,.68.29.68.81,0,2.53,0,5.07,0,7.6,0,.91.49,1.58,1.31,1.79.15.04.31.05.46.05,3.78,0,7.57,0,11.35,0,.08,0,.15,0,.23-.01-.13-.63-.31-1.24-.39-1.86-.31-2.37-.09-4.66,1.25-6.72.79-1.22,1.89-2.03,3.33-2.35.08-.02.17-.05.17-.05-.2-.69-.41-1.37-.57-2.05-.11-.46.2-.81.67-.83,1.31-.05,2.48.26,3.38,1.32.23-.39.4-.74.4-1.2-.02-3.62-.03-7.23,0-10.85.01-1.07-.73-1.97-1.94-1.93-.95.03-1.9,0-2.87,0,0,.11-.02.21-.02.3-.03.73-.53,1.23-1.26,1.23-3.12,0-6.25,0-9.37,0-.74,0-1.26-.52-1.28-1.26,0-.08,0-.15-.01-.26-.1,0-.2-.02-.3-.02-.87,0-1.74,0-2.61,0-1.17,0-1.9.73-1.9,1.9,0,3.2,0,6.41,0,9.61,0,.5-.28.78-.73.75-.33-.02-.58-.27-.61-.6,0-.08,0-.16,0-.23,0-3.2,0-6.41,0-9.61,0-1.83,1.33-3.16,3.17-3.16.88,0,1.76,0,2.64,0,.11,0,.22,0,.33,0-.02-.02-.05-.05-.07-.07.14-.32.24-.66.44-.94C6.72.11,7.07.01,7.45.01c3.05,0,6.09.02,9.14-.01.82,0,1.51.4,1.51,1.42.12,0,.24,0,.35,0,.93,0,1.85,0,2.78,0,1.58.01,2.9,1.25,3.02,2.83.01.2.02.4.02.6,0,3.09,0,6.18,0,9.27v.44c.12-.06.2-.09.27-.13,1.16-.68,2.43-.83,3.74-.76.4.02.64.38.57.83-.17,1.05-.45,2.07-1.01,2.98-.21.34-.47.65-.71.99.04.02.09.06.14.09,1.71.7,2.78,2,3.34,3.7,1.1,3.33.77,6.51-1.2,9.44-.96,1.42-2.32,2.29-4.04,2.53-.04,0-.08.03-.12.05h-5.16Zm2.58-1.37s0,.02,0,.03c.61,0,1.23.02,1.84,0,.42-.02.85-.06,1.25-.17,1.47-.4,2.41-1.42,3.09-2.72.76-1.47,1.06-3.05,1-4.69-.05-1.29-.32-2.54-.99-3.67-.69-1.17-1.68-1.91-3.05-2.09-.92-.12-1.8.03-2.66.31-.31.1-.59.11-.9,0-.99-.32-1.99-.49-3.03-.26-1.56.35-2.49,1.39-3.08,2.81-.59,1.43-.72,2.93-.54,4.46.17,1.48.62,2.87,1.53,4.08.81,1.09,1.86,1.8,3.24,1.9.77.06,1.54.01,2.31.01ZM16.73,2.93v-1.56H7.54v1.56h9.18Zm6.75,15.44c.52-.05,1.02-.09,1.51-.15.14-.02.29-.06.4-.13,1.15-.69,1.67-1.79,1.97-3.04-2.03-.02-3.65,1.38-3.89,3.32Zm-1.65-.02c-.25-.87-.99-1.48-1.81-1.5.15.95.85,1.53,1.81,1.5Z"/><path class="cls-1" d="m12.45,22.56c0,2.42-1.96,4.38-4.38,4.37-2.41,0-4.38-1.98-4.38-4.39,0-2.4,1.98-4.38,4.4-4.38,2.41,0,4.37,1.97,4.37,4.39Zm-4.37-3.04c-1.66,0-3.02,1.35-3.03,3.02,0,1.68,1.36,3.04,3.04,3.04,1.64,0,3.02-1.39,3.02-3.03,0-1.66-1.37-3.02-3.03-3.02Z"/><path class="cls-1" d="m12.59,9.31c-2.43,0-4.86,0-7.3,0-.09,0-.18,0-.27,0-.43-.02-.73-.31-.73-.68,0-.37.29-.66.72-.69.09,0,.18,0,.27,0,4.86,0,9.73,0,14.59,0,.15,0,.31,0,.46.04.32.08.49.3.5.62,0,.33-.15.56-.46.65-.15.04-.31.05-.46.05-2.44,0-4.89,0-7.33,0Z"/><path class="cls-1" d="m11.08,12.8c-2,0-4,0-5.99,0-.59,0-.96-.48-.72-.93.1-.18.33-.29.52-.4.1-.05.24-.02.36-.02,3.9,0,7.79,0,11.69,0,.1,0,.2,0,.3,0,.39.03.66.3.67.66,0,.37-.28.67-.67.69-.36.02-.71,0-1.07,0-1.7,0-3.39,0-5.09,0Z"/><path class="cls-1" d="m10.15,16.29c-1.71,0-3.41,0-5.12,0-.38,0-.65-.22-.72-.57-.06-.29.12-.62.42-.72.14-.05.31-.05.46-.05,3.12,0,6.24,0,9.36,0,.2,0,.4,0,.6,0,.56,0,.85.23.85.66,0,.44-.29.68-.84.68-1.67,0-3.34,0-5.02,0Z"/><path class="cls-2" d="m.68,17.7c-.39,0-.67-.28-.68-.66,0-.39.28-.68.66-.68.39,0,.67.28.68.67,0,.39-.27.68-.66.68Z"/><path class="cls-1" d="m7.59,22.55c.44-.48.86-.95,1.3-1.41.25-.26.57-.31.85-.14.27.16.4.48.3.78-.04.11-.11.22-.19.31-.55.61-1.1,1.23-1.66,1.83-.34.37-.71.38-1.08.05-.26-.24-.53-.48-.78-.73-.3-.3-.32-.71-.06-.99.26-.28.67-.28.99,0,.11.09.21.19.34.31Z"/></g></svg>