<?xml version="1.0" encoding="UTF-8"?><svg id="Layer_2" xmlns="http://www.w3.org/2000/svg" viewBox="0 0 38.68 33.46"><defs><style>.cls-1{fill:#fff;}.cls-2{fill:#025780;}</style></defs><g id="Capa_1"><path class="cls-1" d="m38.68,3.67c-.26.35-.63.39-1.04.37-.32-.01-.74-.14-.95.06-.21.2-.07.62-.07.94,0,3.45,0,6.9,0,10.34,0,.15-.02.3-.03.45-.39,0-.78,0-1.17,0,0-.15-.02-.3-.02-.45,0-3.64,0-7.27.01-10.91,0-.34-.08-.44-.43-.44-10.43.01-20.86,0-31.3,0-.35,0-.44.09-.44.44.01,4.09.01,8.18.01,12.27,0,.15,0,.3-.01.45-.39,0-.78,0-1.17,0,0-.16-.03-.32-.03-.49,0-4.08,0-8.16.01-12.24,0-.34-.07-.48-.43-.44-.32.03-.65.02-.98,0C.23,4.02,0,3.79,0,3.36,0,2.47,0,1.58,0,.68,0,.27.22.05.62.01c.1-.01.2,0,.3,0C13.2,0,25.47,0,37.74,0c.39,0,.72.06.93.42v3.25Zm-19.38-.84c5.7,0,11.4,0,17.11,0,.34,0,.77.14.99-.06.23-.22.07-.67.08-1.01,0-.6.08-.53-.51-.53-11.74,0-23.49,0-35.23,0-.09,0-.18,0-.26,0-.2-.02-.27.07-.26.26.01.28,0,.55,0,.83,0,.58-.07.51.49.51,5.87,0,11.73,0,17.6,0Z"/><path class="cls-2" d="m2.09,17.2c.39,0,.78,0,1.17,0,0,1.69.01,3.37,0,5.06,0,.28.07.37.36.37,2.52-.01,5.03,0,7.55,0,.19,0,.32-.05.46-.2,1.02-1.15,2.26-1.98,3.7-2.53.95-.36,1.93-.54,3.04-.61-1.84-.43-3.2-1.34-4.08-2.92.44-.16.9-.04,1.35-.08.84,1.05,1.9,1.71,3.26,1.82,1.7.14,3.06-.51,4.13-1.82.45.03.9-.07,1.34.08-.41.78-1,1.41-1.72,1.92-.7.5-1.5.76-2.39,1,2.74.15,4.99,1.17,6.79,3.15.14.15.3.16.47.16,2.47,0,4.93,0,7.4,0,.37,0,.46-.1.46-.46,0-2.1.01-4.2.02-6.31.39,0,.78,0,1.17,0,0,.14.02.28.02.41,0,2.81,0,5.61,0,8.42,0,1.34-.69,2.03-2.02,2.03-1.65,0-3.3,0-4.95,0-.31,0-.38.07-.31.38.14.59.16,1.2.16,1.8,0,1.25,0,2.49,0,3.74,0,.65-.18.84-.82.84-6.23,0-12.46,0-18.69,0-.62,0-.82-.19-.82-.81.01-1.56-.05-3.12.04-4.68.02-.31.06-.63.13-.93.07-.28-.02-.34-.29-.34-1.69.01-3.37,0-5.06,0-1.2,0-1.94-.72-1.94-1.92,0-2.43,0-4.86,0-7.29,0-.1.01-.2.02-.3Zm17.25,15.05c1.56,0,3.12,0,4.68,0,.24,0,.31-.05.31-.31-.02-1.37-.01-2.74,0-4.12,0-.4.23-.65.58-.66.36-.01.63.24.63.65,0,1.41,0,2.82-.01,4.23,0,.14,0,.2.16.2.79,0,1.59,0,2.38,0,.16,0,.23-.05.23-.22-.04-1.47.1-2.95-.08-4.41-.44-3.5-3.21-6.38-6.68-6.99-.23-.04-.28-.02-.24.23.2,1.39.38,2.78.57,4.16.1.74.2,1.49.3,2.23.03.21-.04.39-.18.56-.69.82-1.37,1.64-2.06,2.46-.39.46-.74.46-1.12,0-.64-.75-1.24-1.52-1.9-2.25-.31-.35-.38-.7-.32-1.14.29-2.02.56-4.03.85-6.05.03-.24-.03-.24-.23-.21-3.28.6-5.93,3.1-6.6,6.43-.33,1.64-.11,3.31-.17,4.97,0,.17.07.22.22.22.79,0,1.59,0,2.38,0,.1,0,.17,0,.17-.16-.02-1.4-.02-2.79-.02-4.19,0-.47.24-.74.63-.73.37.01.58.27.58.73,0,1.33.01,2.67,0,4,0,.29.06.36.34.35,1.55-.01,3.1,0,4.64,0Zm0-11.74c-.08,0-.15.01-.23,0-.37-.08-.46.11-.51.43-.27,2.02-.55,4.03-.83,6.05-.02.12,0,.22.09.31.44.52.88,1.03,1.31,1.56.14.17.22.15.34,0,.42-.52.86-1.02,1.28-1.53.07-.08.15-.16.11-.26-.09-.22-.06-.45-.09-.67-.25-1.73-.49-3.46-.72-5.18-.09-.69-.08-.69-.76-.69Zm12.47,3.32c-1.12,0-2.24,0-3.36,0-.25,0-.31.04-.18.29.2.37.38.76.55,1.15.07.16.14.24.33.24,1.89,0,3.78,0,5.66,0,.36,0,.56-.21.59-.56.02-.25-.01-.5.01-.75.03-.28-.07-.37-.36-.36-1.08.02-2.16,0-3.25,0Zm-24.86,0h-2.72q-1,0-.96,1c.02.48.2.67.67.67,1.85,0,3.7,0,5.55,0,.22,0,.31-.09.38-.27.16-.37.32-.74.52-1.09.16-.28.1-.33-.2-.33-1.08.01-2.16,0-3.24,0Z"/><path class="cls-2" d="m23.03,16.28c.59-.89.91-1.86.86-2.95-.1-2.47-2.19-4.4-4.69-4.33-3.52.1-5.6,3.95-3.75,6.95.07.11.13.22.19.32-.45.04-.91-.07-1.35.08-1.6-2.75-.57-6.6,2.67-8.08,2.71-1.24,5.88-.11,7.26,2.21,1.15,1.95,1.2,3.88.16,5.87-.44-.15-.9-.05-1.34-.08Z"/></g></svg>