<?xml version="1.0" encoding="UTF-8"?><svg id="Layer_2" xmlns="http://www.w3.org/2000/svg" viewBox="0 0 29.99 29.99"><defs><style>.cls-1{fill:#fff;}.cls-2{fill:#025780;}</style></defs><g id="Capa_1"><path class="cls-2" d="m29.99,6.5c-.3.54-.61,1.08-.9,1.63-.05.09-.08.23-.05.31.16.38.12.74-.09,1.09-.1.17-.19.34-.3.52.18.11.36.21.53.31.62.37.78.92.42,1.54-.55.96-1.1,1.91-1.65,2.86-.19.32-.42.41-.67.27-.25-.14-.29-.4-.11-.71.52-.91,1.05-1.82,1.58-2.73q.19-.33-.15-.53c-.13-.07-.25-.14-.4-.23-.05.08-.1.14-.14.22-1.02,1.76-2.04,3.53-3.05,5.29-.08.13-.12.31-.12.46,0,3.63,0,7.26,0,10.89,0,1.35-.93,2.28-2.28,2.28-6.78,0-13.57,0-20.35,0-1.33,0-2.27-.94-2.27-2.26,0-.53,0-1.05,0-1.58,0-.4.14-.55.54-.55.96,0,1.91,0,2.87,0,.02,0,.04,0,.1-.02,0-.11,0-.24,0-.36,0-7.6,0-15.21,0-22.81,0-1.28.53-2,1.77-2.38.02,0,.03-.02.05-.03,7.09,0,14.18,0,21.26,0,.04.02.09.04.13.06.93.25,1.52.86,1.65,1.8.09.71.04,1.44.02,2.16,0,.26-.21.37-.47.37-.56,0-1.11,0-1.67,0-.45,0-.89,0-1.35,0v4.49c.28-.48.52-.89.75-1.3.19-.32.45-.53.83-.58.1-.01.23-.1.28-.19.27-.43.5-.88.77-1.31.46-.74,1.44-.87,2.04-.27.17.17.28.41.41.62v.64Zm-5.97,10.83s-.04-.01-.06-.02c-.06.11-.13.21-.19.32-.66,1.14-1.32,2.28-1.97,3.42-.71,1.24-1.66,2.24-2.89,2.96-.15.09-.37.11-.54.07-.22-.06-.26-.29-.25-.51.04-1.3.32-2.53.96-3.67.77-1.38,1.57-2.74,2.35-4.11.05-.09.1-.22.07-.31-.1-.36-.02-.67.16-.98.74-1.27,1.48-2.55,2.2-3.82.09-.15.14-.34.14-.52,0-2.33,0-4.67,0-7,0-.77-.12-1.57.43-2.27h-.35c-6.06,0-12.12,0-18.19,0-.99,0-1.52.53-1.52,1.52,0,7.62,0,15.25,0,22.87v.33c.15,0,.27,0,.38,0,5.34,0,10.68,0,16.02,0,.46,0,.59.13.59.59,0,.53,0,1.05,0,1.58.02.89.79,1.49,1.63,1.29.63-.15,1.01-.67,1.01-1.4,0-3,0-5.99,0-8.99,0-.45,0-.9,0-1.34ZM.88,26.49c0,.41,0,.79,0,1.17,0,.91.55,1.46,1.46,1.46,6.1,0,12.2,0,18.3,0,.08,0,.16-.01.28-.02-.62-.81-.35-1.73-.44-2.61H.88Zm23.03-10.31c.05-.06.11-.12.15-.19,1.22-2.29,2.44-4.59,3.67-6.88.09-.17.08-.28-.08-.38-.41-.25-.81-.5-1.21-.76-.15-.1-.24-.06-.32.1-1.22,2.3-2.44,4.59-3.67,6.88-.09.17-.08.28.09.38.41.24.81.5,1.22.76.05.03.1.05.17.09Zm-1.66.02c-.05.07-.08.11-.1.15-.75,1.29-1.51,2.57-2.22,3.88-.29.53-.48,1.12-.69,1.7-.09.26-.12.55-.18.88.09-.05.12-.05.14-.07.07-.05.14-.11.21-.16.63-.54,1.15-1.16,1.57-1.88.72-1.24,1.43-2.48,2.15-3.72.04-.06.06-.13.1-.22-.33-.19-.64-.37-.97-.56Zm5.28-12.69c0-.41,0-.81,0-1.21,0-.08,0-.16-.01-.23-.1-.69-.65-1.18-1.31-1.18-.65,0-1.22.48-1.29,1.16-.05.48-.01.97-.01,1.46h2.62Zm.72,4.3c.28-.48.55-.94.81-1.41.12-.22.05-.43-.16-.55-.2-.12-.42-.1-.55.1-.3.46-.56.94-.85,1.43.26.15.49.28.75.43Z"/><path class="cls-1" d="m18.19,3.15c-.05.15-.09.3-.15.43-.35.76-.41,1.55-.21,2.37.51,2.05-.6,3.84-2.65,4.4-2.07.57-4.11-.83-4.54-2.28-.2-.69-.27-1.38-.08-2.07.23-.85.16-1.68-.21-2.47-.15-.31-.15-.61.09-.87.23-.26.52-.3.85-.2.9.29,1.8.26,2.69-.06.13-.05.31-.05.45,0,.91.34,1.83.34,2.75.06.52-.16.98.17,1.01.69Zm-6.92.24c.4,1.01.39,1.97.15,2.96-.21.87,0,1.69.63,2.32.91.9,1.99,1.14,3.22.72,1.29-.44,2.04-1.73,1.74-3.05-.15-.67-.26-1.34-.12-2.03.06-.3.15-.59.23-.91-.95.25-1.87.21-2.77-.09-.07-.02-.16-.04-.23-.02-.92.32-1.85.36-2.85.1Z"/><path class="cls-1" d="m13,15.35c-2.2,0-4.39,0-6.59,0-.14,0-.33-.04-.42-.14-.09-.1-.14-.31-.1-.44.04-.12.21-.21.33-.28.06-.03.15,0,.23,0,4.38,0,8.77,0,13.15,0,.05,0,.1,0,.15,0,.27.01.45.18.45.43,0,.26-.18.44-.47.45-.07,0-.14,0-.2,0-2.18,0-4.35,0-6.53,0Z"/><path class="cls-1" d="m12.46,17.4c2.02,0,4.04,0,6.06,0,.26,0,.44.09.5.35.05.21-.03.39-.24.48-.1.05-.23.05-.34.05-2.3,0-4.61,0-6.91,0-1.67,0-3.34,0-5.01,0-.08,0-.16,0-.23,0-.27-.01-.44-.19-.44-.45,0-.25.18-.43.45-.43.89,0,1.78,0,2.67,0,1.16,0,2.32,0,3.49,0Z"/><path class="cls-1" d="m11.85,21.2c-1.83,0-3.65,0-5.48,0-.26,0-.44-.09-.5-.35-.05-.21.03-.39.24-.48.1-.05.23-.05.34-.05,2.72,0,5.45,0,8.17,0,.86,0,1.72,0,2.58,0,.49,0,.68.13.67.45,0,.31-.2.43-.69.43-1.78,0-3.55,0-5.33,0Z"/><path class="cls-1" d="m16.92,12.42c-1.5,0-3,0-4.51,0-.32,0-.51-.17-.52-.43,0-.27.2-.45.53-.45.07,0,.14,0,.2,0,2.58,0,5.15,0,7.73,0,.37,0,.74,0,1.11,0,.32,0,.5.17.5.44,0,.27-.19.43-.51.43-1.51,0-3.02,0-4.54,0Z"/><path class="cls-1" d="m8.64,24.13c-.75,0-1.5,0-2.25,0-.34,0-.53-.16-.52-.45,0-.27.19-.43.51-.43,1.51,0,3.03,0,4.54,0,.32,0,.51.16.51.43,0,.27-.18.44-.5.44-.76,0-1.52,0-2.28,0Z"/><path class="cls-1" d="m15.09,23.26c.75,0,1.5,0,2.25,0,.34,0,.53.17.52.45,0,.27-.19.43-.52.43-1.51,0-3.03,0-4.54,0-.32,0-.51-.17-.51-.44,0-.27.18-.44.5-.44.76,0,1.52,0,2.28,0Z"/><path class="cls-1" d="m7.9,12.42c-.52,0-1.03,0-1.55,0-.31,0-.5-.18-.49-.45,0-.26.19-.42.49-.42,1.04,0,2.09,0,3.13,0,.29,0,.48.18.48.44,0,.25-.19.44-.48.44-.53,0-1.05,0-1.58,0Z"/></g></svg>