<?xml version="1.0" encoding="UTF-8"?><svg id="Layer_2" xmlns="http://www.w3.org/2000/svg" viewBox="0 0 38.75 23.49"><defs><style>.cls-1{fill:#fff;}.cls-2{fill:#025780;}.cls-3{fill:none;}</style></defs><g id="Capa_1"><path class="cls-3" d="m12.39,15.49c-.16-.19-.29-.43-.49-.53-.29-.15-.6-.06-.81.21-.43.56-.86,1.13-1.27,1.71-.27.38-.22.76.11,1,.33.24.7.17.99-.2.42-.54.82-1.08,1.22-1.63.1-.14.15-.32.26-.55Z"/><path class="cls-3" d="m21.69,8.31l.21-.08c-.06.01-.13.04-.21.08Z"/><path class="cls-3" d="m11.61,5.47c-.29.02-.46.12-.61.38-1.1,1.93-2.22,3.86-3.33,5.79-.29.5-.57.99-.87,1.52.15.09.27.16.39.22.02-.03.05-.05.07-.08l.03-.05-.03.05c1.09-1.37,2.87-1.23,3.73.27,1.12-.22,1.95.07,2.45.91.15.26.3.3.58.27,1.17-.12,2.15.68,2.26,1.85.03.27.12.37.38.45.79.24,1.33.77,1.43,1.59.06.48-.05.98-.1,1.56l.21-.25-.21.25s0,.02,0,.03c.86.54,1.81,1.16,2.79,1.74.55.33,1.21-.03,1.3-.66.05-.39-.16-.65-.46-.87-.89-.65-1.8-1.29-2.66-1.98-.19-.15-.35-.48-.35-.72,0-.19.26-.5.45-.54.24-.06.57.03.78.18,1.32.94,2.62,1.91,3.93,2.87.54.39,1.04.36,1.36-.07.31-.43.2-.87-.34-1.27-.71-.52-1.41-1.05-2.12-1.57-.73-.54-1.47-1.08-2.19-1.63-.34-.26-.41-.69-.18-1,.24-.33.62-.38,1-.14.08.05.15.1.22.16,1.47,1.1,2.94,2.2,4.41,3.29.18.13.39.25.6.3.41.09.79-.15.94-.54.17-.42.05-.78-.38-1.1-1.64-1.23-3.28-2.45-4.92-3.67-.11-.08-.23-.16-.32-.26-.26-.28-.29-.6-.05-.91.24-.31.56-.35.89-.19.15.07.28.18.41.28,1.71,1.26,3.41,2.53,5.12,3.79.5.37,1.05.37,1.35,0,.36-.44.28-1.03-.21-1.44-2.33-1.96-4.67-3.92-6.99-5.89-.17-.15-.31-.18-.47-.15l-.21.08c-1.41.7-2.89,1.09-4.47.98-.82-.06-1.51-.43-2.01-1.1-.67-.9-.57-1.4.38-1.97.14-.09.29-.17.43-.26.34-.21.69-.42,1.08-.66h0s0,0,0,0c.09-.06.17-.11.27-.17-2.01.12-3.88.23-5.76.33Z"/><path class="cls-3" d="m14.58,16.28c-.3-.23-.64-.21-.86.06-.69.87-1.36,1.74-1.99,2.65-.3.43.08.98.72.96.06-.03.25-.06.34-.18.67-.86,1.34-1.72,1.97-2.61.21-.3.13-.65-.18-.89Z"/><path class="cls-3" d="m10.38,3.92c-.17-.19-.31-.45-.53-.58-.78-.49-1.59-.94-2.39-1.39-.5-.28-.84-.18-1.13.32-1.58,2.72-3.15,5.45-4.73,8.18-.33.57-.24.89.34,1.23.75.43,1.49.86,2.24,1.29.6.34.93.26,1.27-.33,1.55-2.7,3.1-5.41,4.65-8.11.09-.16.15-.33.27-.59Z"/><path class="cls-3" d="m9.31,13.86c-.21-.08-.56-.04-.73.09-.28.23-.53.56-.67.89-.09.2-.03.56.1.73.12.15.45.21.68.19.3-.02,1-.99,1.02-1.44-.08-.11-.2-.39-.4-.46Z"/><path class="cls-3" d="m35.9,7.73c-1.12-1.94-2.23-3.88-3.36-5.82-.13-.22-.37-.38-.55-.56-.27.11-.45.16-.61.24-.77.43-1.53.86-2.29,1.3-.49.29-.59.6-.3,1.09,1.55,2.69,3.09,5.38,4.65,8.06.28.48.57.55,1.06.28.78-.44,1.55-.88,2.32-1.33.52-.31.6-.6.3-1.13-.4-.71-.81-1.42-1.22-2.13Z"/><path class="cls-3" d="m16.46,18.51c-.3-.21-.65-.21-.9.08-.4.48-.78.97-1.12,1.48-.3.45.04,1.05.65,1.05.09-.05.29-.09.39-.22.4-.49.79-1,1.14-1.52.21-.31.16-.66-.16-.88Z"/><path class="cls-3" d="m29.75,12.72c.13.11.34.24.46.2.56-.21,1.1-.48,1.67-.74-1.32-2.28-2.62-4.52-3.92-6.77-1.25.57-2.43.37-3.6-.11-.53-.22-1.07-.41-1.61-.61-.77-.29-1.51-.24-2.22.19-1.27.77-2.54,1.53-3.82,2.29-.1.06-.19.13-.29.2,0,.05-.01.1-.02.16.3.11.61.32.91.31.7-.02,1.42-.08,2.1-.25.68-.17,1.36-.43,1.96-.78.61-.36.76-.44,1.3,0,.32.27.64.53.95.8l.35-.13-.35.13c2.04,1.71,4.08,3.42,6.13,5.12t0,0Z"/><path class="cls-2" d="m7.18,13.38c-.12-.07-.24-.14-.39-.22.3-.52.59-1.02.87-1.52,1.11-1.93,2.23-3.85,3.33-5.79.15-.26.32-.36.61-.38,1.88-.1,3.75-.21,5.76-.33-.1.06-.18.11-.27.17l2.4-1.45c-.33-.1-.59-.25-.84-.24-1.92.1-3.84.23-5.77.34-.37.02-.75.05-1.15.07-.02-1.02-.57-1.63-1.39-2.06-.73-.39-1.44-.83-2.17-1.24-1.2-.68-2.37-.37-3.07.82C3.52,4.29,1.93,7.03.35,9.78c-.68,1.19-.36,2.37.83,3.06.76.44,1.53.87,2.28,1.32.71.42,1.42.56,2.2.18.3-.15.68.14.72.47l.86-1.52s-.05.05-.07.08Zm-1.72-.75c-.34.59-.67.67-1.27.33-.75-.43-1.5-.86-2.24-1.29-.58-.34-.67-.65-.34-1.23,1.57-2.73,3.15-5.45,4.73-8.18.29-.5.64-.6,1.13-.32.8.45,1.61.91,2.39,1.39.22.14.36.39.53.58-.12.27-.18.44-.27.59-1.55,2.71-3.1,5.41-4.65,8.11Z"/><path class="cls-1" d="m18.08,18.65c-.1-.83-.65-1.35-1.43-1.59-.26-.08-.36-.18-.38-.45-.11-1.17-1.1-1.97-2.26-1.85-.27.03-.42-.01-.58-.27-.5-.84-1.33-1.13-2.45-.91-.85-1.5-2.64-1.64-3.73-.27l-.86,1.52s.02.05.02.08c-.08,1.05.47,1.92,1.47,2.23.26.08.34.2.36.47.08.89.74,1.63,1.62,1.79.26.05.36.11.43.39.18.8.69,1.36,1.5,1.54.41.09.86.06,1.33.09.4.7,1.04,1.14,1.92,1.15.9,0,1.51-.53,1.98-1.26,0,0,.02.01.03.02l.94-1.1c.05-.58.16-1.08.1-1.56Zm-9.39-2.89c-.23.02-.55-.04-.68-.19-.14-.17-.19-.53-.1-.73.15-.34.39-.66.67-.89.17-.14.52-.17.73-.09.19.07.31.35.4.46-.01.45-.71,1.42-1.02,1.44Zm1.23,2.12c-.33-.24-.38-.62-.11-1,.41-.58.84-1.14,1.27-1.71.21-.28.52-.36.81-.21.2.1.33.35.49.53-.11.23-.16.41-.26.55-.4.55-.8,1.1-1.22,1.63-.29.37-.66.44-.99.2Zm2.86,1.9c-.09.11-.28.15-.34.18-.64.02-1.02-.53-.72-.96.63-.91,1.3-1.79,1.99-2.65.22-.28.56-.29.86-.06.31.24.39.59.18.89-.63.89-1.3,1.75-1.97,2.61Zm3.84-.39c-.36.53-.74,1.03-1.14,1.52-.1.13-.3.17-.39.22-.61,0-.95-.6-.65-1.05.34-.52.72-1.01,1.12-1.48.25-.3.6-.3.9-.08.32.22.37.57.16.88Z"/><path class="cls-1" d="m38.42,9.23c-1.57-2.72-3.14-5.43-4.73-8.13-.64-1.09-1.81-1.4-2.9-.8-.83.46-1.66.95-2.49,1.42-.68.38-1.02.97-1.09,1.73-.02.23.03.47.06.83-.48.01-.95.12-1.36,0-.84-.22-1.65-.58-2.49-.84-.5-.16-1.02-.28-1.54-.33-.93-.09-1.74.31-2.41.74h0l-2.4,1.45c-.39.24-.74.45-1.08.66-.14.09-.29.17-.43.26-.95.57-1.05,1.07-.38,1.97.5.67,1.19,1.04,2.01,1.1,1.58.11,3.06-.28,4.47-.98.08-.04.14-.06.21-.08l1.73-.63c-.32-.27-.64-.53-.95-.8-.54-.45-.69-.37-1.3,0-.6.36-1.28.61-1.96.78-.68.17-1.4.23-2.1.25-.3,0-.6-.2-.91-.31,0-.05.01-.1.02-.16.1-.07.19-.14.29-.2,1.27-.76,2.55-1.52,3.82-2.29.71-.43,1.45-.49,2.22-.19.54.2,1.08.39,1.61.61,1.17.48,2.35.68,3.6.11,1.31,2.26,2.6,4.49,3.92,6.77-.57.26-1.11.53-1.67.74-.11.04-.33-.09-.46-.2l1.37,1.63c-.02-.07-.03-.2,0-.21.54-.25,1.09-.49,1.65-.72.03-.01.1.06.15.09.78.5,1.57.48,2.36.02.79-.46,1.58-.9,2.36-1.37,1.11-.66,1.44-1.82.8-2.93Zm-1.61,1.76c-.77.45-1.54.9-2.32,1.33-.49.28-.78.21-1.06-.28-1.55-2.68-3.1-5.37-4.65-8.06-.28-.49-.19-.8.3-1.09.76-.44,1.52-.87,2.29-1.3.16-.09.33-.13.61-.24.18.18.42.34.55.56,1.13,1.93,2.24,3.88,3.36,5.82.41.71.82,1.41,1.22,2.13.3.53.22.82-.3,1.13Z"/><path class="cls-2" d="m29.75,12.72c-2.05-1.7-4.09-3.41-6.13-5.12l-1.73.63c.16-.04.29,0,.47.15,2.32,1.97,4.66,3.92,6.99,5.89.5.42.58,1,.21,1.44-.29.36-.85.36-1.35,0-1.71-1.26-3.41-2.52-5.12-3.79-.13-.1-.26-.21-.41-.28-.34-.15-.66-.12-.89.19-.24.31-.2.62.05.91.09.1.21.18.32.26,1.64,1.22,3.28,2.44,4.92,3.67.43.32.55.68.38,1.1-.16.39-.53.62-.94.54-.21-.05-.42-.17-.6-.3-1.47-1.09-2.94-2.19-4.41-3.29-.07-.05-.15-.11-.22-.16-.38-.24-.76-.19-1,.14-.23.31-.17.74.18,1,.72.55,1.46,1.09,2.19,1.63.71.52,1.41,1.05,2.12,1.57.53.4.65.84.34,1.27-.31.43-.82.47-1.36.07-1.31-.96-2.61-1.93-3.93-2.87-.21-.15-.54-.24-.78-.18-.19.05-.44.35-.45.54,0,.24.15.56.35.72.87.69,1.77,1.33,2.66,1.98.3.22.52.48.46.87-.09.63-.75.99-1.3.66-.98-.58-1.92-1.2-2.79-1.74,0-.01,0-.02,0-.03l-.94,1.1c1.02.63,1.99,1.25,2.98,1.84,1.22.73,2.68.26,3.28-1.04.06-.12.11-.24.17-.35,1.53.54,3-.2,3.29-2.05,1.33-.24,1.9-.82,2.21-2.27.03-.02.05-.04.08-.04,1.63-.17,2.51-1.73,2.07-3.05l-1.37-1.63s0,0,0,0Z"/></g></svg>