<?xml version="1.0" encoding="UTF-8"?><svg id="Layer_2" xmlns="http://www.w3.org/2000/svg" viewBox="0 0 34.39 26.92"><defs><style>.cls-1{fill:#fff;}.cls-2{fill:#025780;}</style></defs><g id="Capa_1"><path class="cls-2" d="m0,14.81c.31-.52.77-.75,1.38-.69.31.03.63,0,.95,0,.03-.14.06-.27.1-.39.15-.46.56-.79,1.05-.81.38-.01.76-.01,1.14,0,.73.01,1.21.5,1.22,1.23,0,.63,0,1.26,0,1.91h1.63c-.27-.43-.53-.84-.77-1.27-.93-1.59-1.61-3.26-1.89-5.09C4.09,4.96,7.26.88,11.51.15c3.13-.54,5.76.44,7.87,2.82.05.06.11.1.15.15.46-.44.88-.89,1.35-1.28,3.1-2.57,7.85-2.41,10.78.33.34.32.38.62.1.86-.23.2-.48.18-.78-.09-.76-.69-1.61-1.23-2.58-1.52-3-.91-5.58-.22-7.75,2.04-.03.03-.06.06-.09.1-.53.77-1.35.81-2.06,0-1.96-2.21-4.45-3.02-7.31-2.27-2.9.76-4.68,2.72-5.32,5.64-.38,1.76-.02,3.47.62,5.13.53,1.39,1.28,2.66,2.15,3.86.07.1.26.17.39.17,1.37.01,2.74,0,4.1.02.17,0,.41.15.5.29.07.12.03.39-.07.51-.1.12-.33.18-.5.18-2.27.01-4.53,0-6.8,0-.12,0-.24,0-.4,0v2.07h11.16v-2.07c-.51,0-1.02.02-1.53-.01-.17-.01-.38-.15-.47-.29-.07-.12-.04-.37.04-.49.09-.12.29-.2.45-.21.49-.03.98,0,1.52,0,0-.64,0-1.25,0-1.86,0-.41.11-.77.44-1.05.46-.38,2.16-.41,2.59,0,.23.23.37.56.6.93.25,0,.64,0,1.03,0,.79,0,1.25.46,1.26,1.26,0,1.86,0,3.72,0,5.58,0,.81-.46,1.26-1.28,1.27-.37,0-.74,0-1.04,0-.18.32-.29.65-.51.88-.46.49-2.19.47-2.69.02-.28-.26-.39-.59-.4-.96,0-.53,0-1.05,0-1.58,0-.11,0-.22,0-.34h-4.64c.19.19.34.34.49.48,1.92,1.81,3.98,3.45,6.15,4.95.41.28.6.29,1.01,0,3.26-2.27,6.29-4.8,8.89-7.82,1.6-1.86,2.99-3.86,3.82-6.2.7-2,.91-4.01.1-6.03-.12-.29-.27-.57-.4-.85-.15-.32-.07-.6.22-.74.27-.13.53-.04.7.27.85,1.55,1.16,3.21.98,4.96-.31,2.93-1.67,5.4-3.39,7.71-2.42,3.24-5.4,5.89-8.61,8.31-.57.43-1.16.85-1.75,1.26-.73.51-1.37.5-2.11-.01-2.63-1.82-5.1-3.84-7.36-6.11-.1-.1-.26-.19-.4-.19-1.56-.01-3.12,0-4.68,0-.05,0-.11.01-.2.02,0,.59,0,1.17,0,1.74,0,1.01-.43,1.44-1.42,1.44-.21,0-.43,0-.64,0-.88,0-1.25-.3-1.45-1.2-.3,0-.61-.02-.92,0-.62.05-1.09-.16-1.41-.7v-6.73Zm4.8,3.4c0-1.3,0-2.6,0-3.9,0-.3-.09-.41-.39-.38-.22.02-.45.02-.67,0-.29-.03-.37.1-.36.37.01.54.01,1.08,0,1.61-.01.32-.22.51-.51.51-.28,0-.49-.21-.51-.52-.01-.17,0-.34,0-.5,0-.19-.07-.27-.26-.26-.28,0-.56.01-.84,0-.26-.01-.33.1-.33.34,0,.74,0,1.48,0,2.22,0,1.05,0,2.11,0,3.16,0,.26.07.37.34.35.28-.02.56.01.84-.02.09,0,.22-.14.23-.23.03-.25.01-.51.01-.77,0-.63,0-1.26,0-1.88,0-.34.22-.54.52-.54.29,0,.48.19.5.51,0,.1,0,.2,0,.3,0,1.15,0,2.31,0,3.46,0,.27.07.4.36.37.21-.02.43-.02.64,0,.32.03.43-.09.42-.41-.02-1.27,0-2.53,0-3.8Zm13.28-.03c0,1.3,0,2.6,0,3.9,0,.26.08.37.35.34.2-.02.4,0,.6,0q.47,0,.47-.46c0-2.52,0-5.04,0-7.56,0-.07,0-.13,0-.2,0-.18-.08-.26-.27-.26-.26,0-.52.02-.77,0-.3-.03-.38.09-.38.38.01,1.29,0,2.58,0,3.87Zm3.85.03c0-.92,0-1.84,0-2.76,0-.23-.07-.33-.31-.31-.27.01-.54.01-.81,0-.24-.01-.31.09-.31.32.01.56,0,1.12,0,1.68,0,1.24,0,2.49,0,3.73,0,.26.08.37.35.35.25-.02.49-.02.74,0,.27.02.35-.09.34-.35-.01-.88,0-1.77,0-2.65Z"/><path class="cls-1" d="m18.05,8.42c1,0,1.96,0,2.92,0,.47,0,.94,0,1.41,0,.35,0,.6.21.61.5.01.3-.23.54-.6.54-1.55,0-3.09,0-4.64,0-.32,0-.52-.15-.6-.48-.08-.31-.19-.62-.31-1.01-.07.19-.11.31-.15.43-.5,1.63-.99,3.27-1.49,4.91-.13.44-.45.65-.75.46-.14-.09-.26-.28-.31-.45-.48-1.52-.95-3.05-1.4-4.58-.07-.22-.15-.3-.39-.3-1.31.01-2.62,0-3.93,0-.09,0-.18,0-.27,0-.38-.02-.61-.24-.6-.54.02-.3.24-.49.61-.49,1.59,0,3.18,0,4.78,0,.32,0,.52.15.61.46.36,1.19.72,2.37,1.1,3.61.05-.1.09-.15.11-.22.52-1.69,1.03-3.37,1.54-5.06.09-.29.21-.54.55-.54.33,0,.46.25.54.55.21.73.44,1.45.67,2.2Z"/></g></svg>